%FSTIX11Y11*%
%MOMM*%
%SFA1B1*%

%IPPOS*%
%ADD32R,1.553210X1.353312*%
%ADD33R,1.353312X1.553210*%
%ADD39C,1.803146*%
%ADD40C,1.203198*%
%ADD41C,1.893062*%
%ADD42R,1.893062X1.893062*%
%ADD43C,4.963160*%
%ADD44C,1.727200*%
%ADD45R,1.727200X1.727200*%
%ADD46C,0.803148*%
%ADD47C,1.503172*%
%ADD48R,1.203198X2.353310*%
%ADD49R,3.453130X2.353310*%
%ADD50R,2.203196X1.903222*%
%LNusb_can-1*%
%LPD*%
G54D32*
X599Y462D03*
Y-17D03*
X23Y17D03*
Y-17D03*
X23D03*
Y17D03*
X23Y-17D03*
Y17D03*
G54D33*
X-156Y17D03*
X-17D03*
X17Y-22D03*
X-17D03*
X17Y-22D03*
X-17D03*
X17Y-22D03*
X-17D03*
X17Y-22D03*
X-17D03*
X17Y-22D03*
X-17D03*
X17Y-22D03*
X-17D03*
X249Y-104D03*
X17D03*
X-17Y25D03*
X17D03*
X-17Y24D03*
X17D03*
X-17Y25D03*
X17D03*
G54D39*
X-48Y-12D03*
X76D03*
X-7Y182D03*
Y-49D03*
G54D40*
X-246Y47D03*
X1Y-88D03*
X0Y22D03*
G54D41*
X263Y-96D03*
X28Y13D03*
X-28Y13D03*
X28Y13D03*
X-28Y13D03*
X28Y13D03*
X-28Y13D03*
X28Y13D03*
G54D42*
X-28Y13D03*
G54D43*
X14Y69D03*
Y-249D03*
G54D44*
X-216Y-11D03*
X25D03*
X-5D03*
G54D45*
X76D03*
G54D46*
X-219Y106D03*
Y43D03*
G54D47*
X102Y-38D03*
X184Y-16D03*
X-129Y16D03*
X64Y-39D03*
X-155Y78D03*
X96Y71D03*
X-96Y-48D03*
X221Y-36D03*
X54Y13D03*
X-24Y118D03*
X-13Y08D03*
X-47Y-54D03*
X-131Y-25D03*
G54D48*
X06Y-136D03*
X22D03*
X22D03*
G54D49*
X-22Y-58D03*
G54D50*
X61Y42D03*
Y-42D03*
M02*