%FSTIX11Y11*%
%MOMM*%
%SFA1B1*%

%IPPOS*%
%ADD31R,2.203196X0.803148*%
%ADD32R,1.553210X1.353312*%
%ADD33R,1.353312X1.553210*%
%ADD34R,0.803148X1.103122*%
%ADD35R,2.703068X2.203196*%
%ADD36R,2.503170X0.703072*%
%ADD37O,1.753108X0.453136*%
%ADD38O,0.453136X1.753108*%
%ADD39C,1.803146*%
%ADD40C,1.203198*%
%ADD41C,1.893062*%
%ADD42R,1.893062X1.893062*%
%ADD43C,4.963160*%
%ADD44C,1.727200*%
%ADD45R,1.727200X1.727200*%
%ADD46C,0.803148*%
%ADD47C,1.503172*%
%LNusb_can-1*%
%LPD*%
G54D31*
X781Y514D03*
Y25D03*
Y-38D03*
Y25D03*
X-54Y-12D03*
Y12D03*
Y-25D03*
Y38D03*
G54D32*
X65Y-129D03*
Y-17D03*
X-117Y24D03*
Y17D03*
X-22Y-17D03*
Y17D03*
X-71Y-17D03*
Y17D03*
X-23Y-17D03*
Y17D03*
X71Y-17D03*
Y17D03*
X-23Y-17D03*
Y17D03*
X-95Y-17D03*
Y17D03*
X23Y-17D03*
Y17D03*
X145Y-59D03*
Y-17D03*
G54D33*
X86Y39D03*
X17D03*
X-17Y23D03*
X17D03*
G54D34*
X-237Y-111D03*
X09Y-22D03*
X-18D03*
G54D35*
X-99Y-27D03*
Y89D03*
X55D03*
Y-89D03*
G54D36*
X01Y6D03*
Y-07D03*
Y-08D03*
Y-07D03*
Y-08D03*
G54D37*
X184Y42D03*
Y-04D03*
Y-05D03*
Y-04D03*
Y-05D03*
Y-04D03*
Y-05D03*
Y-04D03*
Y-05D03*
Y-04D03*
Y-05D03*
Y-04D03*
X-8D03*
Y04D03*
Y05D03*
Y04D03*
Y05D03*
Y04D03*
Y05D03*
Y04D03*
Y05D03*
Y04D03*
Y05D03*
Y04D03*
G54D38*
X67Y-67D03*
X-05D03*
X-04D03*
X-05D03*
X-04D03*
X-05D03*
X-04D03*
X-05D03*
X-04D03*
X-05D03*
X-04D03*
X-05D03*
Y8D03*
X05D03*
X04D03*
X05D03*
X04D03*
X05D03*
X04D03*
X05D03*
X04D03*
X05D03*
X04D03*
X05D03*
G54D39*
X5Y-104D03*
X76D03*
X-7Y182D03*
Y-49D03*
G54D40*
X-246Y47D03*
X1Y-88D03*
X0Y22D03*
G54D41*
X263Y-96D03*
X28Y13D03*
X-28Y13D03*
X28Y13D03*
X-28Y13D03*
X28Y13D03*
X-28Y13D03*
X28Y13D03*
G54D42*
X-28Y13D03*
G54D43*
X14Y69D03*
Y-249D03*
G54D44*
X-216Y-11D03*
X25D03*
X-5D03*
G54D45*
X76D03*
G54D46*
X-219Y106D03*
Y43D03*
G54D47*
X102Y-38D03*
X184Y-16D03*
X-129Y16D03*
X64Y-39D03*
X-155Y78D03*
X96Y71D03*
X-96Y-48D03*
X221Y-36D03*
X54Y13D03*
X-24Y118D03*
X-13Y08D03*
X-47Y-54D03*
X-131Y-25D03*
M02*