M48
;Layer_Color=9474304
;FILE_FORMAT=2:5
INCH,LZ
;TYPE=PLATED
T5F00S00C0.04724
;TYPE=NON_PLATED
%
G90
G05
T05
X0010039Y0008465G85X0015157
X0010039Y0054528G85X0015157
X0197047Y0054528G85X0202165
X0197047Y0008465G85X0202165
X0197047Y0073425G85X0202165
X0197047Y0119488G85X0202165
X0197047Y0138386G85X0202165
X0197047Y0184449G85X0202165
X0197047Y0203346G85X0202165
X0010039Y0203346G85X0015157
X0010039Y0184449G85X0015157
X0010039Y0138386G85X0015157
X0010039Y0119488G85X0015157
X0010039Y0073425G85X0015157
X0010039Y024941G85X0015157
X0010039Y0268307G85X0015157
X0010039Y031437G85X0015157
X0010039Y0333268G85X0015157
X0197047Y0333268G85X0202165
X0197047Y031437G85X0202165
X0197047Y0268307G85X0202165
X0197047Y024941G85X0202165
X0197047Y0379331G85X0202165
X0010039Y0379331G85X0015157
M30
