M48
;Layer_Color=9474304
;FILE_FORMAT=2:5
INCH,LZ
;TYPE=PLATED
T2F00S00C0.01181
T3F00S00C0.03150
T4F00S00C0.03543
;TYPE=NON_PLATED
T1F00S00C0.04331
%
T02
X0036102Y0013425
X0046575
X0050098Y002628
X0044134Y0037284
X0038858Y0032677
X0031998Y0042215
X0050197Y0056024
X0060669Y004815
X0070551
X0073543Y0036693
X0068937Y0029646
X0060551Y0033504
X0070866Y0017913
X0074685Y001811
X0081772Y0025748
X0091504Y0024732
X0105079Y002126
Y001122
Y0006221
X0126535
X012689Y0021339
X0121181Y0019213
Y0044882
X011126
X0106299Y0037008
X0101299Y0041378
X0091417Y0042165
X0087165Y0045079
X0096457Y0055748
X0136496Y0055787
X0131142Y0044882
X0148583Y0040787
X0148622Y0022638
X0153347Y0013976
X0139961Y001122
X015748Y0031496
X0225866Y0032677
X0231142Y0037284
X0237106Y002628
X0233583Y0013425
X022311
X0219006Y0042215
X0237205Y0056024
X0247677Y004815
X0257559
X0260551Y0036693
X0255945Y0029646
X0247559Y0033504
X0257874Y0017913
X0261693Y001811
X0268779Y0025748
X0278512Y0024732
X0292087Y002126
Y001122
Y0006221
X0313543
X0313898Y0021339
X0308189Y0019213
Y0044882
X0298268
X0293307Y0037008
X0288307Y0041378
X0278425Y0042165
X0274173Y0045079
X0283465Y0055748
X0323504Y0055787
X031815Y0044882
X0335591Y0040787
X033563Y0022638
X0340354Y0013976
X0326969Y001122
X0344488Y0031496
X0340354Y0078937
X033563Y0087598
X0344488Y0096457
X0335591Y0105748
X031815Y0109843
X0308189
X0298268
X0293307Y0101969
X0288307Y0106339
X0278425Y0107126
X0274173Y0110039
X0257559Y011311
X0247677
X0247559Y0098465
X0255945Y0094606
X0260551Y0101654
X0268779Y0090709
X0278512Y0089693
X0292087Y0086221
Y0076181
Y0071181
X0313543
X0313898Y0086299
X0308189Y0084173
X0326969Y0076181
X0323504Y0120748
X0326969Y0141142
X0340354Y0143898
X033563Y0152559
X0344488Y0161417
X0335591Y0170709
X031815Y0174803
X0308189
X0298268
X0293307Y0166929
X0288307Y0171299
X0278425Y0172087
X0274173Y0175
X0257559Y0178071
X0247677
X0247559Y0163425
X0255945Y0159567
X0260551Y0166614
X0268779Y0155669
X0278512Y0154654
X0292087Y0151181
Y0141142
Y0136142
X0313543
X0313898Y015126
X0308189Y0149134
X0261693Y0148031
X0257874Y0147835
X0233583Y0143347
X022311
X0225866Y0162598
X0231142Y0167205
X0237106Y0156201
X0237205Y0185945
X0233583Y0208307
X022311
X0257874Y0212795
X0261693Y0212992
X0292087Y0206102
Y0201102
X0313543
X0326969Y0206102
X0340354Y0208858
X0323504Y0185709
X0283465Y0185669
Y0120709
X0237205Y0120984
X0231142Y0102244
X0225866Y0097638
X0219006Y0107175
X022311Y0078386
X0233583
X0237106Y009124
X0257874Y0082874
X0261693Y0083071
X0219006Y0172136
X0148583Y0170709
X0148622Y0152559
X0153347Y0143898
X0139961Y0141142
X0126535Y0136142
X012689Y015126
X0121181Y0149134
X0105079Y0151181
Y0141142
Y0136142
X0096457Y0120709
X0091417Y0107126
X0087165Y0110039
X0101299Y0106339
X0106299Y0101969
X011126Y0109843
X0121181
X0131142
X0136496Y0120748
X0148583Y0105748
X0148622Y0087598
X0153347Y0078937
X0139961Y0076181
X0126535Y0071181
X012689Y0086299
X0121181Y0084173
X0105079Y0086221
Y0076181
Y0071181
X0091504Y0089693
X0081772Y0090709
X0074685Y0083071
X0070866Y0082874
X0068937Y0094606
X0073543Y0101654
X0070551Y011311
X0060669
X0060551Y0098465
X0070866Y0147835
X0074685Y0148031
X0081772Y0155669
X0091504Y0154654
X0091417Y0172087
X0087165Y0175
X0101299Y0171299
X0106299Y0166929
X011126Y0174803
X0121181
X0131142
X0136496Y0185709
X0139961Y0206102
X0153347Y0208858
X0126535Y0201102
X0105079
Y0206102
X0096457Y0185669
X0070551Y0178071
X0060669
X0060551Y0163425
X0068937Y0159567
X0073543Y0166614
X0074685Y0212992
X0070866Y0212795
X015748Y0161417
Y0096457
X0050098Y009124
X0046575Y0078386
X0036102
X0038858Y0097638
X0044134Y0102244
X0031998Y0107175
X0050197Y0120984
X0046575Y0143347
X0036102
X0038858Y0162598
X0044134Y0167205
X0050098Y0156201
X0050197Y0185945
X0046575Y0208307
X0036102
X0031998Y0172136
X0038858Y0227559
X0044134Y0232165
X0050098Y0221161
X0050197Y0250905
X0046575Y0273268
X0036102
X0038858Y029252
X0044134Y0297126
X0050098Y0286122
X0050197Y0315866
X0046575Y0338228
X0036102
X0038858Y035748
X0044134Y0362087
X0050098Y0351083
X0031998Y0367018
Y0302057
Y0237096
X0060669Y0243032
X0070551
X0073543Y0231575
X0068937Y0224528
X0060551Y0228386
X0081772Y022063
X0091504Y0219614
X0105079Y0216142
X0106299Y023189
X0101299Y023626
X0091417Y0237047
X0087165Y0239961
X0096457Y025063
X0105079Y0266063
Y0271063
Y0281102
X0106299Y029685
X0101299Y030122
X0091417Y0302008
X0087165Y0304921
X0070551Y0307992
X0060669
X0060551Y0293347
X0068937Y0289488
X0073543Y0296535
X0081772Y0285591
X0091504Y0284575
X0074685Y0277953
X0070866Y0277756
X0121181Y0279055
X012689Y0281181
X0126535Y0266063
X0139961Y0271063
X0153347Y0273819
X0148622Y028248
X015748Y0291339
X0148583Y030063
X0131142Y0304724
X0121181
X011126
X0096457Y0315591
X0105079Y0331024
Y0336024
Y0346063
X0106299Y0361811
X0101299Y0366181
X0091417Y0366968
X0087165Y0369882
X0073543Y0361496
X0068937Y0354449
X0060551Y0358307
X0070866Y0342717
X0074685Y0342913
X0081772Y0350551
X0091504Y0349535
X0121181Y0344016
X012689Y0346142
X0126535Y0331024
X0139961Y0336024
X0153347Y0338779
X0148622Y0347441
X015748Y0356299
X0148583Y0365591
X0131142Y0369685
X0121181
X011126
X0136496Y031563
Y0250669
X0131142Y0239764
X0121181
X011126
X0121181Y0214094
X012689Y021622
X0148622Y021752
X015748Y0226378
X0148583Y0235669
X0219006Y0237096
X0225866Y0227559
X0231142Y0232165
X0237106Y0221161
X0247559Y0228386
X0255945Y0224528
X0260551Y0231575
X0257559Y0243032
X0247677
X0237205Y0250905
X0233583Y0273268
X022311
X0225866Y029252
X0231142Y0297126
X0237106Y0286122
X0247559Y0293347
X0255945Y0289488
X0260551Y0296535
X0257559Y0307992
X0247677
X0237205Y0315866
X0233583Y0338228
X022311
X0225866Y035748
X0231142Y0362087
X0237106Y0351083
X0247559Y0358307
X0255945Y0354449
X0260551Y0361496
X0268779Y0350551
X0278512Y0349535
X0292087Y0346063
Y0336024
Y0331024
X0313543
X0313898Y0346142
X0308189Y0344016
Y0369685
X0298268
X0293307Y0361811
X0288307Y0366181
X0278425Y0366968
X0274173Y0369882
X0261693Y0342913
X0257874Y0342717
X0283465Y0315591
X0278425Y0302008
X0274173Y0304921
X0288307Y030122
X0293307Y029685
X0298268Y0304724
X0308189
X031815
X0323504Y031563
X0326969Y0336024
X0340354Y0338779
X033563Y0347441
X0344488Y0356299
X0335591Y0365591
X031815Y0369685
X0335591Y030063
X033563Y028248
X0340354Y0273819
X0326969Y0271063
X0313543Y0266063
X0313898Y0281181
X0308189Y0279055
X0292087Y0281102
Y0271063
Y0266063
X0283465Y025063
X0278425Y0237047
X0274173Y0239961
X0288307Y023626
X0293307Y023189
X0298268Y0239764
X0308189
X031815
X0323504Y0250669
X0335591Y0235669
X033563Y021752
X0344488Y0226378
X0313898Y021622
X0308189Y0214094
X0292087Y0216142
X0278512Y0219614
X0268779Y022063
X0261693Y0277953
X0257874Y0277756
X0268779Y0285591
X0278512Y0284575
X0344488Y0291339
X0219006Y0302057
Y0367018
X0237205Y0380827
X0247677Y0372953
X0257559
X0283465Y0380551
X0323504Y0380591
X0136496
X0096457Y0380551
X0070551Y0372953
X0060669
X0050197Y0380827
T03
X0051142Y0008543
X0061142
X0071142
X0081142
X023815
X024815
X025815
X026815
Y0073504
X025815
X024815
X023815
Y0138465
X024815
X025815
X026815
Y0203425
X025815
X024815
X023815
X0081142
X0071142
X0061142
Y0138465
X0071142
X0081142
Y0073504
X0071142
X0061142
X0051142
Y0138465
Y0203425
Y0268386
Y0333347
X0061142
X0071142
X0081142
Y0268386
X0071142
X0061142
X023815
X024815
X025815
X026815
Y0333347
X025815
X024815
X023815
T04
X0020866Y0017717
Y0027559
Y0035433
Y0045276
X0207874
Y0035433
Y0027559
Y0017717
Y0082677
Y009252
Y0100394
Y0110236
Y0147638
Y015748
Y0165354
Y0175197
Y0212598
X0020866
Y0175197
Y0165354
Y015748
Y0147638
Y0110236
Y0100394
Y009252
Y0082677
Y0222441
Y0230315
Y0240158
Y0277559
Y0287402
Y0295276
Y0305118
Y034252
Y0352362
Y0360236
Y0370079
X0207874
Y0360236
Y0352362
Y034252
Y0305118
Y0295276
Y0287402
Y0277559
Y0240158
Y0230315
Y0222441
T01
X0012598Y0022638
Y0040354
X0199606
Y0022638
Y0087598
Y0105315
Y0152559
Y0170276
X0012598
Y0152559
Y0105315
Y0087598
Y021752
Y0235236
Y028248
Y0300197
Y0347441
Y0365158
X0199606
Y0347441
Y0300197
Y028248
Y0235236
Y021752
M30
