G04 Layer_Color=16711935*
%FSLAX25Y25*%
%MOIN*%
G70*
G01*
G75*
%ADD32O,0.20485X0.08674*%
%ADD43R,0.05328X0.06115*%
%ADD44R,0.06115X0.05328*%
%ADD45C,0.06800*%
%ADD46R,0.06800X0.06800*%
%ADD47O,0.08674X0.05524*%
%ADD48O,0.08674X0.05524*%
%ADD49O,0.16548X0.08280*%
%ADD50C,0.03950*%
D32*
X171535Y15138D02*
D03*
Y26043D02*
D03*
Y36949D02*
D03*
Y47854D02*
D03*
X358543Y15138D02*
D03*
Y26043D02*
D03*
Y36949D02*
D03*
Y47854D02*
D03*
X171535Y80098D02*
D03*
Y91004D02*
D03*
Y101909D02*
D03*
Y112815D02*
D03*
X358543Y80098D02*
D03*
Y91004D02*
D03*
Y101909D02*
D03*
Y112815D02*
D03*
X171535Y145059D02*
D03*
Y155965D02*
D03*
Y166870D02*
D03*
Y177776D02*
D03*
X358543Y145059D02*
D03*
Y155965D02*
D03*
Y166870D02*
D03*
Y177776D02*
D03*
X171535Y210020D02*
D03*
Y220925D02*
D03*
Y231831D02*
D03*
Y242736D02*
D03*
X358543Y210020D02*
D03*
Y220925D02*
D03*
Y231831D02*
D03*
Y242736D02*
D03*
X171535Y274980D02*
D03*
Y285886D02*
D03*
Y296791D02*
D03*
Y307697D02*
D03*
X358543Y274980D02*
D03*
Y285886D02*
D03*
Y296791D02*
D03*
Y307697D02*
D03*
X171535Y339941D02*
D03*
Y350847D02*
D03*
Y361752D02*
D03*
Y372657D02*
D03*
X358543Y339941D02*
D03*
Y350847D02*
D03*
Y361752D02*
D03*
Y372657D02*
D03*
D43*
X49626Y48150D02*
D03*
X56516D02*
D03*
X81949D02*
D03*
X75059D02*
D03*
X49705Y33465D02*
D03*
X56595D02*
D03*
X236634Y48150D02*
D03*
X243524D02*
D03*
X268957D02*
D03*
X262067D02*
D03*
X236713Y33465D02*
D03*
X243602D02*
D03*
X49626Y113110D02*
D03*
X56516D02*
D03*
X81949D02*
D03*
X75059D02*
D03*
X49705Y98425D02*
D03*
X56595D02*
D03*
X236634Y113110D02*
D03*
X243524D02*
D03*
X268957D02*
D03*
X262067D02*
D03*
X236713Y98425D02*
D03*
X243602D02*
D03*
X49626Y178071D02*
D03*
X56516D02*
D03*
X81949D02*
D03*
X75059D02*
D03*
X49705Y163386D02*
D03*
X56595D02*
D03*
X236634Y178071D02*
D03*
X243524D02*
D03*
X268957D02*
D03*
X262067D02*
D03*
X236713Y163386D02*
D03*
X243602D02*
D03*
X49626Y243032D02*
D03*
X56516D02*
D03*
X81949D02*
D03*
X75059D02*
D03*
X49705Y228346D02*
D03*
X56595D02*
D03*
X236634Y243032D02*
D03*
X243524D02*
D03*
X268957D02*
D03*
X262067D02*
D03*
X236713Y228346D02*
D03*
X243602D02*
D03*
X49626Y307992D02*
D03*
X56516D02*
D03*
X81949D02*
D03*
X75059D02*
D03*
X49705Y293307D02*
D03*
X56595D02*
D03*
X236634Y307992D02*
D03*
X243524D02*
D03*
X268957D02*
D03*
X262067D02*
D03*
X236713Y293307D02*
D03*
X243602D02*
D03*
X49626Y372953D02*
D03*
X56516D02*
D03*
X81949D02*
D03*
X75059D02*
D03*
X49705Y358268D02*
D03*
X56595D02*
D03*
X236634Y372953D02*
D03*
X243524D02*
D03*
X268957D02*
D03*
X262067D02*
D03*
X236713Y358268D02*
D03*
X243602D02*
D03*
D44*
X121176Y6201D02*
D03*
Y13091D02*
D03*
X81791Y29823D02*
D03*
Y36713D02*
D03*
X111305Y36516D02*
D03*
Y29626D02*
D03*
X101435Y36595D02*
D03*
Y29705D02*
D03*
X91564Y48878D02*
D03*
Y55768D02*
D03*
X31220Y13406D02*
D03*
Y6516D02*
D03*
X41181Y13406D02*
D03*
Y6516D02*
D03*
X131063Y13091D02*
D03*
Y6201D02*
D03*
X148622Y28051D02*
D03*
Y34941D02*
D03*
X121176Y29626D02*
D03*
Y36516D02*
D03*
X111305Y55768D02*
D03*
Y48878D02*
D03*
X121176Y55768D02*
D03*
Y48878D02*
D03*
X91504Y36595D02*
D03*
Y29705D02*
D03*
X101435Y48878D02*
D03*
Y55768D02*
D03*
X308184Y6201D02*
D03*
Y13091D02*
D03*
X268799Y29823D02*
D03*
Y36713D02*
D03*
X298313Y36516D02*
D03*
Y29626D02*
D03*
X288442Y36595D02*
D03*
Y29705D02*
D03*
X278572Y48878D02*
D03*
Y55768D02*
D03*
X218228Y13406D02*
D03*
Y6516D02*
D03*
X228189Y13406D02*
D03*
Y6516D02*
D03*
X318071Y13091D02*
D03*
Y6201D02*
D03*
X335630Y28051D02*
D03*
Y34941D02*
D03*
X308184Y29626D02*
D03*
Y36516D02*
D03*
X298313Y55768D02*
D03*
Y48878D02*
D03*
X308184Y55768D02*
D03*
Y48878D02*
D03*
X278512Y36595D02*
D03*
Y29705D02*
D03*
X288442Y48878D02*
D03*
Y55768D02*
D03*
X121176Y71161D02*
D03*
Y78051D02*
D03*
X81791Y94784D02*
D03*
Y101673D02*
D03*
X111305Y101476D02*
D03*
Y94587D02*
D03*
X101435Y101555D02*
D03*
Y94665D02*
D03*
X91564Y113839D02*
D03*
Y120728D02*
D03*
X31220Y78366D02*
D03*
Y71476D02*
D03*
X41181Y78366D02*
D03*
Y71476D02*
D03*
X131063Y78051D02*
D03*
Y71161D02*
D03*
X148622Y93012D02*
D03*
Y99902D02*
D03*
X121176Y94587D02*
D03*
Y101476D02*
D03*
X111305Y120728D02*
D03*
Y113839D02*
D03*
X121176Y120728D02*
D03*
Y113839D02*
D03*
X91504Y101555D02*
D03*
Y94665D02*
D03*
X101435Y113839D02*
D03*
Y120728D02*
D03*
X308184Y71161D02*
D03*
Y78051D02*
D03*
X268799Y94784D02*
D03*
Y101673D02*
D03*
X298313Y101476D02*
D03*
Y94587D02*
D03*
X288442Y101555D02*
D03*
Y94665D02*
D03*
X278572Y113839D02*
D03*
Y120728D02*
D03*
X218228Y78366D02*
D03*
Y71476D02*
D03*
X228189Y78366D02*
D03*
Y71476D02*
D03*
X318071Y78051D02*
D03*
Y71161D02*
D03*
X335630Y93012D02*
D03*
Y99902D02*
D03*
X308184Y94587D02*
D03*
Y101476D02*
D03*
X298313Y120728D02*
D03*
Y113839D02*
D03*
X308184Y120728D02*
D03*
Y113839D02*
D03*
X278512Y101555D02*
D03*
Y94665D02*
D03*
X288442Y113839D02*
D03*
Y120728D02*
D03*
X121176Y136122D02*
D03*
Y143012D02*
D03*
X81791Y159744D02*
D03*
Y166634D02*
D03*
X111305Y166437D02*
D03*
Y159547D02*
D03*
X101435Y166516D02*
D03*
Y159626D02*
D03*
X91564Y178799D02*
D03*
Y185689D02*
D03*
X31220Y143327D02*
D03*
Y136437D02*
D03*
X41181Y143327D02*
D03*
Y136437D02*
D03*
X131063Y143012D02*
D03*
Y136122D02*
D03*
X148622Y157972D02*
D03*
Y164862D02*
D03*
X121176Y159547D02*
D03*
Y166437D02*
D03*
X111305Y185689D02*
D03*
Y178799D02*
D03*
X121176Y185689D02*
D03*
Y178799D02*
D03*
X91504Y166516D02*
D03*
Y159626D02*
D03*
X101435Y178799D02*
D03*
Y185689D02*
D03*
X308184Y136122D02*
D03*
Y143012D02*
D03*
X268799Y159744D02*
D03*
Y166634D02*
D03*
X298313Y166437D02*
D03*
Y159547D02*
D03*
X288442Y166516D02*
D03*
Y159626D02*
D03*
X278572Y178799D02*
D03*
Y185689D02*
D03*
X218228Y143327D02*
D03*
Y136437D02*
D03*
X228189Y143327D02*
D03*
Y136437D02*
D03*
X318071Y143012D02*
D03*
Y136122D02*
D03*
X335630Y157972D02*
D03*
Y164862D02*
D03*
X308184Y159547D02*
D03*
Y166437D02*
D03*
X298313Y185689D02*
D03*
Y178799D02*
D03*
X308184Y185689D02*
D03*
Y178799D02*
D03*
X278512Y166516D02*
D03*
Y159626D02*
D03*
X288442Y178799D02*
D03*
Y185689D02*
D03*
X121176Y201083D02*
D03*
Y207972D02*
D03*
X81791Y224705D02*
D03*
Y231594D02*
D03*
X111305Y231398D02*
D03*
Y224508D02*
D03*
X101435Y231476D02*
D03*
Y224587D02*
D03*
X91564Y243760D02*
D03*
Y250650D02*
D03*
X31220Y208287D02*
D03*
Y201398D02*
D03*
X41181Y208287D02*
D03*
Y201398D02*
D03*
X131063Y207972D02*
D03*
Y201083D02*
D03*
X148622Y222933D02*
D03*
Y229823D02*
D03*
X121176Y224508D02*
D03*
Y231398D02*
D03*
X111305Y250650D02*
D03*
Y243760D02*
D03*
X121176Y250650D02*
D03*
Y243760D02*
D03*
X91504Y231476D02*
D03*
Y224587D02*
D03*
X101435Y243760D02*
D03*
Y250650D02*
D03*
X308184Y201083D02*
D03*
Y207972D02*
D03*
X268799Y224705D02*
D03*
Y231594D02*
D03*
X298313Y231398D02*
D03*
Y224508D02*
D03*
X288442Y231476D02*
D03*
Y224587D02*
D03*
X278572Y243760D02*
D03*
Y250650D02*
D03*
X218228Y208287D02*
D03*
Y201398D02*
D03*
X228189Y208287D02*
D03*
Y201398D02*
D03*
X318071Y207972D02*
D03*
Y201083D02*
D03*
X335630Y222933D02*
D03*
Y229823D02*
D03*
X308184Y224508D02*
D03*
Y231398D02*
D03*
X298313Y250650D02*
D03*
Y243760D02*
D03*
X308184Y250650D02*
D03*
Y243760D02*
D03*
X278512Y231476D02*
D03*
Y224587D02*
D03*
X288442Y243760D02*
D03*
Y250650D02*
D03*
X121176Y266043D02*
D03*
Y272933D02*
D03*
X81791Y289665D02*
D03*
Y296555D02*
D03*
X111305Y296358D02*
D03*
Y289469D02*
D03*
X101435Y296437D02*
D03*
Y289547D02*
D03*
X91564Y308720D02*
D03*
Y315610D02*
D03*
X31220Y273248D02*
D03*
Y266358D02*
D03*
X41181Y273248D02*
D03*
Y266358D02*
D03*
X131063Y272933D02*
D03*
Y266043D02*
D03*
X148622Y287894D02*
D03*
Y294783D02*
D03*
X121176Y289469D02*
D03*
Y296358D02*
D03*
X111305Y315610D02*
D03*
Y308720D02*
D03*
X121176Y315610D02*
D03*
Y308720D02*
D03*
X91504Y296437D02*
D03*
Y289547D02*
D03*
X101435Y308720D02*
D03*
Y315610D02*
D03*
X308184Y266043D02*
D03*
Y272933D02*
D03*
X268799Y289665D02*
D03*
Y296555D02*
D03*
X298313Y296358D02*
D03*
Y289469D02*
D03*
X288442Y296437D02*
D03*
Y289547D02*
D03*
X278572Y308720D02*
D03*
Y315610D02*
D03*
X218228Y273248D02*
D03*
Y266358D02*
D03*
X228189Y273248D02*
D03*
Y266358D02*
D03*
X318071Y272933D02*
D03*
Y266043D02*
D03*
X335630Y287894D02*
D03*
Y294783D02*
D03*
X308184Y289469D02*
D03*
Y296358D02*
D03*
X298313Y315610D02*
D03*
Y308720D02*
D03*
X308184Y315610D02*
D03*
Y308720D02*
D03*
X278512Y296437D02*
D03*
Y289547D02*
D03*
X288442Y308720D02*
D03*
Y315610D02*
D03*
X121176Y331004D02*
D03*
Y337894D02*
D03*
X81791Y354626D02*
D03*
Y361516D02*
D03*
X111305Y361319D02*
D03*
Y354429D02*
D03*
X101435Y361398D02*
D03*
Y354508D02*
D03*
X91564Y373681D02*
D03*
Y380571D02*
D03*
X31220Y338209D02*
D03*
Y331319D02*
D03*
X41181Y338209D02*
D03*
Y331319D02*
D03*
X131063Y337894D02*
D03*
Y331004D02*
D03*
X148622Y352854D02*
D03*
Y359744D02*
D03*
X121176Y354429D02*
D03*
Y361319D02*
D03*
X111305Y380571D02*
D03*
Y373681D02*
D03*
X121176Y380571D02*
D03*
Y373681D02*
D03*
X91504Y361398D02*
D03*
Y354508D02*
D03*
X101435Y373681D02*
D03*
Y380571D02*
D03*
X308184Y331004D02*
D03*
Y337894D02*
D03*
X268799Y354626D02*
D03*
Y361516D02*
D03*
X298313Y361319D02*
D03*
Y354429D02*
D03*
X288442Y361398D02*
D03*
Y354508D02*
D03*
X278572Y373681D02*
D03*
Y380571D02*
D03*
X218228Y338209D02*
D03*
Y331319D02*
D03*
X228189Y338209D02*
D03*
Y331319D02*
D03*
X318071Y337894D02*
D03*
Y331004D02*
D03*
X335630Y352854D02*
D03*
Y359744D02*
D03*
X308184Y354429D02*
D03*
Y361319D02*
D03*
X298313Y380571D02*
D03*
Y373681D02*
D03*
X308184Y380571D02*
D03*
Y373681D02*
D03*
X278512Y361398D02*
D03*
Y354508D02*
D03*
X288442Y373681D02*
D03*
Y380571D02*
D03*
D45*
X51142Y8543D02*
D03*
X71142D02*
D03*
X61142D02*
D03*
X238150D02*
D03*
X258150D02*
D03*
X248150D02*
D03*
X51142Y73504D02*
D03*
X71142D02*
D03*
X61142D02*
D03*
X238150D02*
D03*
X258150D02*
D03*
X248150D02*
D03*
X51142Y138465D02*
D03*
X71142D02*
D03*
X61142D02*
D03*
X238150D02*
D03*
X258150D02*
D03*
X248150D02*
D03*
X51142Y203425D02*
D03*
X71142D02*
D03*
X61142D02*
D03*
X238150D02*
D03*
X258150D02*
D03*
X248150D02*
D03*
X51142Y268386D02*
D03*
X71142D02*
D03*
X61142D02*
D03*
X238150D02*
D03*
X258150D02*
D03*
X248150D02*
D03*
X51142Y333347D02*
D03*
X71142D02*
D03*
X61142D02*
D03*
X238150D02*
D03*
X258150D02*
D03*
X248150D02*
D03*
D46*
X81142Y8543D02*
D03*
X268150D02*
D03*
X81142Y73504D02*
D03*
X268150D02*
D03*
X81142Y138465D02*
D03*
X268150D02*
D03*
X81142Y203425D02*
D03*
X268150D02*
D03*
X81142Y268386D02*
D03*
X268150D02*
D03*
X81142Y333347D02*
D03*
X268150D02*
D03*
D47*
X20866Y45276D02*
D03*
Y17717D02*
D03*
X207874Y45276D02*
D03*
Y17717D02*
D03*
X20866Y110236D02*
D03*
Y82677D02*
D03*
X207874Y110236D02*
D03*
Y82677D02*
D03*
X20866Y175197D02*
D03*
Y147638D02*
D03*
X207874Y175197D02*
D03*
Y147638D02*
D03*
X20866Y240158D02*
D03*
Y212598D02*
D03*
X207874Y240158D02*
D03*
Y212598D02*
D03*
X20866Y305118D02*
D03*
Y277559D02*
D03*
X207874Y305118D02*
D03*
Y277559D02*
D03*
X20866Y370079D02*
D03*
Y342520D02*
D03*
X207874Y370079D02*
D03*
Y342520D02*
D03*
D48*
X20866Y35433D02*
D03*
Y27559D02*
D03*
X207874Y35433D02*
D03*
Y27559D02*
D03*
X20866Y100394D02*
D03*
Y92520D02*
D03*
X207874Y100394D02*
D03*
Y92520D02*
D03*
X20866Y165354D02*
D03*
Y157480D02*
D03*
X207874Y165354D02*
D03*
Y157480D02*
D03*
X20866Y230315D02*
D03*
Y222441D02*
D03*
X207874Y230315D02*
D03*
Y222441D02*
D03*
X20866Y295276D02*
D03*
Y287402D02*
D03*
X207874Y295276D02*
D03*
Y287402D02*
D03*
X20866Y360236D02*
D03*
Y352362D02*
D03*
X207874Y360236D02*
D03*
Y352362D02*
D03*
D49*
X12598Y54528D02*
D03*
Y8465D02*
D03*
X199606Y54528D02*
D03*
Y8465D02*
D03*
X12598Y119488D02*
D03*
Y73425D02*
D03*
X199606Y119488D02*
D03*
Y73425D02*
D03*
X12598Y184449D02*
D03*
Y138386D02*
D03*
X199606Y184449D02*
D03*
Y138386D02*
D03*
X12598Y249410D02*
D03*
Y203346D02*
D03*
X199606Y249410D02*
D03*
Y203346D02*
D03*
X12598Y314370D02*
D03*
Y268307D02*
D03*
X199606Y314370D02*
D03*
Y268307D02*
D03*
X12598Y379331D02*
D03*
Y333268D02*
D03*
X199606Y379331D02*
D03*
Y333268D02*
D03*
D50*
X12598Y40354D02*
D03*
Y22638D02*
D03*
X199606Y40354D02*
D03*
Y22638D02*
D03*
X12598Y105315D02*
D03*
Y87598D02*
D03*
X199606Y105315D02*
D03*
Y87598D02*
D03*
X12598Y170276D02*
D03*
Y152559D02*
D03*
X199606Y170276D02*
D03*
Y152559D02*
D03*
X12598Y235236D02*
D03*
Y217520D02*
D03*
X199606Y235236D02*
D03*
Y217520D02*
D03*
X12598Y300197D02*
D03*
Y282480D02*
D03*
X199606Y300197D02*
D03*
Y282480D02*
D03*
X12598Y365158D02*
D03*
Y347441D02*
D03*
X199606Y365158D02*
D03*
Y347441D02*
D03*
M02*
