G04 Layer_Color=16711935*
%FSLAX25Y25*%
%MOIN*%
G70*
G01*
G75*
%ADD23C,0.00984*%
D23*
X0Y0D02*
Y387795D01*
X372047D01*
Y0D02*
Y387795D01*
X0Y0D02*
X372047D01*
X0D02*
X185039D01*
Y62992D01*
X0Y0D02*
Y62992D01*
X185039D01*
X187008Y0D02*
X372047D01*
Y62992D01*
X187008Y0D02*
Y62992D01*
X372047D01*
X0Y64961D02*
X185039D01*
Y127953D01*
X0Y64961D02*
Y127953D01*
X185039D01*
X187008Y64961D02*
X372047D01*
Y127953D01*
X187008Y64961D02*
Y127953D01*
X372047D01*
X0Y129921D02*
X185039D01*
Y192913D01*
X0Y129921D02*
Y192913D01*
X185039D01*
X187008Y129921D02*
X372047D01*
Y192913D01*
X187008Y129921D02*
Y192913D01*
X372047D01*
X0Y194882D02*
X185039D01*
Y257874D01*
X0Y194882D02*
Y257874D01*
X185039D01*
X187008Y194882D02*
X372047D01*
Y257874D01*
X187008Y194882D02*
Y257874D01*
X372047D01*
X0Y259842D02*
X185039D01*
Y322835D01*
X0Y259842D02*
Y322835D01*
X185039D01*
X187008Y259842D02*
X372047D01*
Y322835D01*
X187008Y259842D02*
Y322835D01*
X372047D01*
X0Y324803D02*
X185039D01*
Y387795D01*
X0Y324803D02*
Y387795D01*
X185039D01*
X187008Y324803D02*
X372047D01*
Y387795D01*
X187008Y324803D02*
Y387795D01*
X372047D01*
M02*
