G04 Layer_Color=8388736*
%FSLAX25Y25*%
%MOIN*%
G70*
G01*
G75*
%ADD32O,0.20485X0.08674*%
%ADD33R,0.20485X0.08674*%
%ADD34R,0.08674X0.03162*%
%ADD35O,0.08674X0.03162*%
%ADD36R,0.08674X0.10249*%
%ADD37O,0.06902X0.01784*%
%ADD38O,0.01784X0.06902*%
%ADD39R,0.02768X0.04737*%
%ADD40R,0.05131X0.06706*%
%ADD41R,0.06312X0.06706*%
%ADD42R,0.03162X0.04343*%
%ADD43R,0.05328X0.06115*%
%ADD44R,0.06115X0.05328*%
%ADD45C,0.06800*%
%ADD46R,0.06800X0.06800*%
%ADD47O,0.08674X0.05524*%
%ADD48O,0.08674X0.05524*%
%ADD49O,0.16548X0.08280*%
%ADD50C,0.03950*%
D32*
X171535Y53307D02*
D03*
Y20591D02*
D03*
Y31496D02*
D03*
Y42402D02*
D03*
X358543Y53307D02*
D03*
Y20591D02*
D03*
Y31496D02*
D03*
Y42402D02*
D03*
X171535Y118268D02*
D03*
Y85551D02*
D03*
Y96457D02*
D03*
Y107362D02*
D03*
X358543Y118268D02*
D03*
Y85551D02*
D03*
Y96457D02*
D03*
Y107362D02*
D03*
X171535Y183228D02*
D03*
Y150512D02*
D03*
Y161417D02*
D03*
Y172323D02*
D03*
X358543Y183228D02*
D03*
Y150512D02*
D03*
Y161417D02*
D03*
Y172323D02*
D03*
X171535Y248189D02*
D03*
Y215472D02*
D03*
Y226378D02*
D03*
Y237283D02*
D03*
X358543Y248189D02*
D03*
Y215472D02*
D03*
Y226378D02*
D03*
Y237283D02*
D03*
X171535Y313150D02*
D03*
Y280433D02*
D03*
Y291339D02*
D03*
Y302244D02*
D03*
X358543Y313150D02*
D03*
Y280433D02*
D03*
Y291339D02*
D03*
Y302244D02*
D03*
X171535Y378110D02*
D03*
Y345394D02*
D03*
Y356299D02*
D03*
Y367205D02*
D03*
X358543Y378110D02*
D03*
Y345394D02*
D03*
Y356299D02*
D03*
Y367205D02*
D03*
D33*
X171535Y9685D02*
D03*
X358543D02*
D03*
X171535Y74646D02*
D03*
X358543D02*
D03*
X171535Y139606D02*
D03*
X358543D02*
D03*
X171535Y204567D02*
D03*
X358543D02*
D03*
X171535Y269528D02*
D03*
X358543D02*
D03*
X171535Y334488D02*
D03*
X358543D02*
D03*
D34*
X112008Y21220D02*
D03*
X299016D02*
D03*
X112008Y86181D02*
D03*
X299016D02*
D03*
X112008Y151142D02*
D03*
X299016D02*
D03*
X112008Y216102D02*
D03*
X299016D02*
D03*
X112008Y281063D02*
D03*
X299016D02*
D03*
X112008Y346024D02*
D03*
X299016D02*
D03*
D35*
X112008Y6221D02*
D03*
Y16220D02*
D03*
Y11220D02*
D03*
X133268Y16220D02*
D03*
Y6221D02*
D03*
Y21220D02*
D03*
Y11220D02*
D03*
X299016Y6221D02*
D03*
Y16220D02*
D03*
Y11220D02*
D03*
X320276Y16220D02*
D03*
Y6221D02*
D03*
Y21220D02*
D03*
Y11220D02*
D03*
X112008Y71181D02*
D03*
Y81181D02*
D03*
Y76181D02*
D03*
X133268Y81181D02*
D03*
Y71181D02*
D03*
Y86181D02*
D03*
Y76181D02*
D03*
X299016Y71181D02*
D03*
Y81181D02*
D03*
Y76181D02*
D03*
X320276Y81181D02*
D03*
Y71181D02*
D03*
Y86181D02*
D03*
Y76181D02*
D03*
X112008Y136142D02*
D03*
Y146142D02*
D03*
Y141142D02*
D03*
X133268Y146142D02*
D03*
Y136142D02*
D03*
Y151142D02*
D03*
Y141142D02*
D03*
X299016Y136142D02*
D03*
Y146142D02*
D03*
Y141142D02*
D03*
X320276Y146142D02*
D03*
Y136142D02*
D03*
Y151142D02*
D03*
Y141142D02*
D03*
X112008Y201102D02*
D03*
Y211102D02*
D03*
Y206102D02*
D03*
X133268Y211102D02*
D03*
Y201102D02*
D03*
Y216102D02*
D03*
Y206102D02*
D03*
X299016Y201102D02*
D03*
Y211102D02*
D03*
Y206102D02*
D03*
X320276Y211102D02*
D03*
Y201102D02*
D03*
Y216102D02*
D03*
Y206102D02*
D03*
X112008Y266063D02*
D03*
Y276063D02*
D03*
Y271063D02*
D03*
X133268Y276063D02*
D03*
Y266063D02*
D03*
Y281063D02*
D03*
Y271063D02*
D03*
X299016Y266063D02*
D03*
Y276063D02*
D03*
Y271063D02*
D03*
X320276Y276063D02*
D03*
Y266063D02*
D03*
Y281063D02*
D03*
Y271063D02*
D03*
X112008Y331024D02*
D03*
Y341024D02*
D03*
Y336024D02*
D03*
X133268Y341024D02*
D03*
Y331024D02*
D03*
Y346024D02*
D03*
Y336024D02*
D03*
X299016Y331024D02*
D03*
Y341024D02*
D03*
Y336024D02*
D03*
X320276Y341024D02*
D03*
Y331024D02*
D03*
Y346024D02*
D03*
Y336024D02*
D03*
D36*
X115354Y33898D02*
D03*
X129921D02*
D03*
X302362D02*
D03*
X316929D02*
D03*
X115354Y98858D02*
D03*
X129921D02*
D03*
X302362D02*
D03*
X316929D02*
D03*
X115354Y163819D02*
D03*
X129921D02*
D03*
X302362D02*
D03*
X316929D02*
D03*
X115354Y228780D02*
D03*
X129921D02*
D03*
X302362D02*
D03*
X316929D02*
D03*
X115354Y293740D02*
D03*
X129921D02*
D03*
X302362D02*
D03*
X316929D02*
D03*
X115354Y358701D02*
D03*
X129921D02*
D03*
X302362D02*
D03*
X316929D02*
D03*
D37*
X81791Y29331D02*
D03*
Y31299D02*
D03*
Y33268D02*
D03*
Y35236D02*
D03*
Y37205D02*
D03*
Y39173D02*
D03*
Y41142D02*
D03*
Y43110D02*
D03*
Y45079D02*
D03*
Y47047D02*
D03*
Y49016D02*
D03*
Y50984D02*
D03*
X50098D02*
D03*
Y49016D02*
D03*
Y47047D02*
D03*
Y45079D02*
D03*
Y43110D02*
D03*
Y41142D02*
D03*
Y39173D02*
D03*
Y37205D02*
D03*
Y35236D02*
D03*
Y33268D02*
D03*
Y31299D02*
D03*
Y29331D02*
D03*
X268799D02*
D03*
Y31299D02*
D03*
Y33268D02*
D03*
Y35236D02*
D03*
Y37205D02*
D03*
Y39173D02*
D03*
Y41142D02*
D03*
Y43110D02*
D03*
Y45079D02*
D03*
Y47047D02*
D03*
Y49016D02*
D03*
Y50984D02*
D03*
X237106D02*
D03*
Y49016D02*
D03*
Y47047D02*
D03*
Y45079D02*
D03*
Y43110D02*
D03*
Y41142D02*
D03*
Y39173D02*
D03*
Y37205D02*
D03*
Y35236D02*
D03*
Y33268D02*
D03*
Y31299D02*
D03*
Y29331D02*
D03*
X81791Y94291D02*
D03*
Y96260D02*
D03*
Y98228D02*
D03*
Y100197D02*
D03*
Y102165D02*
D03*
Y104134D02*
D03*
Y106102D02*
D03*
Y108071D02*
D03*
Y110039D02*
D03*
Y112008D02*
D03*
Y113976D02*
D03*
Y115945D02*
D03*
X50098D02*
D03*
Y113976D02*
D03*
Y112008D02*
D03*
Y110039D02*
D03*
Y108071D02*
D03*
Y106102D02*
D03*
Y104134D02*
D03*
Y102165D02*
D03*
Y100197D02*
D03*
Y98228D02*
D03*
Y96260D02*
D03*
Y94291D02*
D03*
X268799D02*
D03*
Y96260D02*
D03*
Y98228D02*
D03*
Y100197D02*
D03*
Y102165D02*
D03*
Y104134D02*
D03*
Y106102D02*
D03*
Y108071D02*
D03*
Y110039D02*
D03*
Y112008D02*
D03*
Y113976D02*
D03*
Y115945D02*
D03*
X237106D02*
D03*
Y113976D02*
D03*
Y112008D02*
D03*
Y110039D02*
D03*
Y108071D02*
D03*
Y106102D02*
D03*
Y104134D02*
D03*
Y102165D02*
D03*
Y100197D02*
D03*
Y98228D02*
D03*
Y96260D02*
D03*
Y94291D02*
D03*
X81791Y159252D02*
D03*
Y161221D02*
D03*
Y163189D02*
D03*
Y165157D02*
D03*
Y167126D02*
D03*
Y169095D02*
D03*
Y171063D02*
D03*
Y173031D02*
D03*
Y175000D02*
D03*
Y176969D02*
D03*
Y178937D02*
D03*
Y180905D02*
D03*
X50098D02*
D03*
Y178937D02*
D03*
Y176969D02*
D03*
Y175000D02*
D03*
Y173031D02*
D03*
Y171063D02*
D03*
Y169095D02*
D03*
Y167126D02*
D03*
Y165157D02*
D03*
Y163189D02*
D03*
Y161221D02*
D03*
Y159252D02*
D03*
X268799D02*
D03*
Y161221D02*
D03*
Y163189D02*
D03*
Y165157D02*
D03*
Y167126D02*
D03*
Y169095D02*
D03*
Y171063D02*
D03*
Y173031D02*
D03*
Y175000D02*
D03*
Y176969D02*
D03*
Y178937D02*
D03*
Y180905D02*
D03*
X237106D02*
D03*
Y178937D02*
D03*
Y176969D02*
D03*
Y175000D02*
D03*
Y173031D02*
D03*
Y171063D02*
D03*
Y169095D02*
D03*
Y167126D02*
D03*
Y165157D02*
D03*
Y163189D02*
D03*
Y161221D02*
D03*
Y159252D02*
D03*
X81791Y224213D02*
D03*
Y226181D02*
D03*
Y228150D02*
D03*
Y230118D02*
D03*
Y232087D02*
D03*
Y234055D02*
D03*
Y236024D02*
D03*
Y237992D02*
D03*
Y239961D02*
D03*
Y241929D02*
D03*
Y243898D02*
D03*
Y245866D02*
D03*
X50098D02*
D03*
Y243898D02*
D03*
Y241929D02*
D03*
Y239961D02*
D03*
Y237992D02*
D03*
Y236024D02*
D03*
Y234055D02*
D03*
Y232087D02*
D03*
Y230118D02*
D03*
Y228150D02*
D03*
Y226181D02*
D03*
Y224213D02*
D03*
X268799D02*
D03*
Y226181D02*
D03*
Y228150D02*
D03*
Y230118D02*
D03*
Y232087D02*
D03*
Y234055D02*
D03*
Y236024D02*
D03*
Y237992D02*
D03*
Y239961D02*
D03*
Y241929D02*
D03*
Y243898D02*
D03*
Y245866D02*
D03*
X237106D02*
D03*
Y243898D02*
D03*
Y241929D02*
D03*
Y239961D02*
D03*
Y237992D02*
D03*
Y236024D02*
D03*
Y234055D02*
D03*
Y232087D02*
D03*
Y230118D02*
D03*
Y228150D02*
D03*
Y226181D02*
D03*
Y224213D02*
D03*
X81791Y289173D02*
D03*
Y291142D02*
D03*
Y293110D02*
D03*
Y295079D02*
D03*
Y297047D02*
D03*
Y299016D02*
D03*
Y300984D02*
D03*
Y302953D02*
D03*
Y304921D02*
D03*
Y306890D02*
D03*
Y308858D02*
D03*
Y310827D02*
D03*
X50098D02*
D03*
Y308858D02*
D03*
Y306890D02*
D03*
Y304921D02*
D03*
Y302953D02*
D03*
Y300984D02*
D03*
Y299016D02*
D03*
Y297047D02*
D03*
Y295079D02*
D03*
Y293110D02*
D03*
Y291142D02*
D03*
Y289173D02*
D03*
X268799D02*
D03*
Y291142D02*
D03*
Y293110D02*
D03*
Y295079D02*
D03*
Y297047D02*
D03*
Y299016D02*
D03*
Y300984D02*
D03*
Y302953D02*
D03*
Y304921D02*
D03*
Y306890D02*
D03*
Y308858D02*
D03*
Y310827D02*
D03*
X237106D02*
D03*
Y308858D02*
D03*
Y306890D02*
D03*
Y304921D02*
D03*
Y302953D02*
D03*
Y300984D02*
D03*
Y299016D02*
D03*
Y297047D02*
D03*
Y295079D02*
D03*
Y293110D02*
D03*
Y291142D02*
D03*
Y289173D02*
D03*
X81791Y354134D02*
D03*
Y356102D02*
D03*
Y358071D02*
D03*
Y360039D02*
D03*
Y362008D02*
D03*
Y363976D02*
D03*
Y365945D02*
D03*
Y367913D02*
D03*
Y369882D02*
D03*
Y371850D02*
D03*
Y373819D02*
D03*
Y375787D02*
D03*
X50098D02*
D03*
Y373819D02*
D03*
Y371850D02*
D03*
Y369882D02*
D03*
Y367913D02*
D03*
Y365945D02*
D03*
Y363976D02*
D03*
Y362008D02*
D03*
Y360039D02*
D03*
Y358071D02*
D03*
Y356102D02*
D03*
Y354134D02*
D03*
X268799D02*
D03*
Y356102D02*
D03*
Y358071D02*
D03*
Y360039D02*
D03*
Y362008D02*
D03*
Y363976D02*
D03*
Y365945D02*
D03*
Y367913D02*
D03*
Y369882D02*
D03*
Y371850D02*
D03*
Y373819D02*
D03*
Y375787D02*
D03*
X237106D02*
D03*
Y373819D02*
D03*
Y371850D02*
D03*
Y369882D02*
D03*
Y367913D02*
D03*
Y365945D02*
D03*
Y363976D02*
D03*
Y362008D02*
D03*
Y360039D02*
D03*
Y358071D02*
D03*
Y356102D02*
D03*
Y354134D02*
D03*
D38*
X76772Y56004D02*
D03*
X74803D02*
D03*
X72835D02*
D03*
X70866D02*
D03*
X68898D02*
D03*
X66929D02*
D03*
X64961D02*
D03*
X62992D02*
D03*
X61024D02*
D03*
X59055D02*
D03*
X57087D02*
D03*
X55118D02*
D03*
Y24311D02*
D03*
X57087D02*
D03*
X59055D02*
D03*
X61024D02*
D03*
X62992D02*
D03*
X64961D02*
D03*
X66929D02*
D03*
X68898D02*
D03*
X70866D02*
D03*
X72835D02*
D03*
X74803D02*
D03*
X76772D02*
D03*
X263779Y56004D02*
D03*
X261811D02*
D03*
X259842D02*
D03*
X257874D02*
D03*
X255906D02*
D03*
X253937D02*
D03*
X251969D02*
D03*
X250000D02*
D03*
X248031D02*
D03*
X246063D02*
D03*
X244094D02*
D03*
X242126D02*
D03*
Y24311D02*
D03*
X244094D02*
D03*
X246063D02*
D03*
X248031D02*
D03*
X250000D02*
D03*
X251969D02*
D03*
X253937D02*
D03*
X255906D02*
D03*
X257874D02*
D03*
X259842D02*
D03*
X261811D02*
D03*
X263779D02*
D03*
X76772Y120965D02*
D03*
X74803D02*
D03*
X72835D02*
D03*
X70866D02*
D03*
X68898D02*
D03*
X66929D02*
D03*
X64961D02*
D03*
X62992D02*
D03*
X61024D02*
D03*
X59055D02*
D03*
X57087D02*
D03*
X55118D02*
D03*
Y89272D02*
D03*
X57087D02*
D03*
X59055D02*
D03*
X61024D02*
D03*
X62992D02*
D03*
X64961D02*
D03*
X66929D02*
D03*
X68898D02*
D03*
X70866D02*
D03*
X72835D02*
D03*
X74803D02*
D03*
X76772D02*
D03*
X263779Y120965D02*
D03*
X261811D02*
D03*
X259842D02*
D03*
X257874D02*
D03*
X255906D02*
D03*
X253937D02*
D03*
X251969D02*
D03*
X250000D02*
D03*
X248031D02*
D03*
X246063D02*
D03*
X244094D02*
D03*
X242126D02*
D03*
Y89272D02*
D03*
X244094D02*
D03*
X246063D02*
D03*
X248031D02*
D03*
X250000D02*
D03*
X251969D02*
D03*
X253937D02*
D03*
X255906D02*
D03*
X257874D02*
D03*
X259842D02*
D03*
X261811D02*
D03*
X263779D02*
D03*
X76772Y185925D02*
D03*
X74803D02*
D03*
X72835D02*
D03*
X70866D02*
D03*
X68898D02*
D03*
X66929D02*
D03*
X64961D02*
D03*
X62992D02*
D03*
X61024D02*
D03*
X59055D02*
D03*
X57087D02*
D03*
X55118D02*
D03*
Y154232D02*
D03*
X57087D02*
D03*
X59055D02*
D03*
X61024D02*
D03*
X62992D02*
D03*
X64961D02*
D03*
X66929D02*
D03*
X68898D02*
D03*
X70866D02*
D03*
X72835D02*
D03*
X74803D02*
D03*
X76772D02*
D03*
X263779Y185925D02*
D03*
X261811D02*
D03*
X259842D02*
D03*
X257874D02*
D03*
X255906D02*
D03*
X253937D02*
D03*
X251969D02*
D03*
X250000D02*
D03*
X248031D02*
D03*
X246063D02*
D03*
X244094D02*
D03*
X242126D02*
D03*
Y154232D02*
D03*
X244094D02*
D03*
X246063D02*
D03*
X248031D02*
D03*
X250000D02*
D03*
X251969D02*
D03*
X253937D02*
D03*
X255906D02*
D03*
X257874D02*
D03*
X259842D02*
D03*
X261811D02*
D03*
X263779D02*
D03*
X76772Y250886D02*
D03*
X74803D02*
D03*
X72835D02*
D03*
X70866D02*
D03*
X68898D02*
D03*
X66929D02*
D03*
X64961D02*
D03*
X62992D02*
D03*
X61024D02*
D03*
X59055D02*
D03*
X57087D02*
D03*
X55118D02*
D03*
Y219193D02*
D03*
X57087D02*
D03*
X59055D02*
D03*
X61024D02*
D03*
X62992D02*
D03*
X64961D02*
D03*
X66929D02*
D03*
X68898D02*
D03*
X70866D02*
D03*
X72835D02*
D03*
X74803D02*
D03*
X76772D02*
D03*
X263779Y250886D02*
D03*
X261811D02*
D03*
X259842D02*
D03*
X257874D02*
D03*
X255906D02*
D03*
X253937D02*
D03*
X251969D02*
D03*
X250000D02*
D03*
X248031D02*
D03*
X246063D02*
D03*
X244094D02*
D03*
X242126D02*
D03*
Y219193D02*
D03*
X244094D02*
D03*
X246063D02*
D03*
X248031D02*
D03*
X250000D02*
D03*
X251969D02*
D03*
X253937D02*
D03*
X255906D02*
D03*
X257874D02*
D03*
X259842D02*
D03*
X261811D02*
D03*
X263779D02*
D03*
X76772Y315846D02*
D03*
X74803D02*
D03*
X72835D02*
D03*
X70866D02*
D03*
X68898D02*
D03*
X66929D02*
D03*
X64961D02*
D03*
X62992D02*
D03*
X61024D02*
D03*
X59055D02*
D03*
X57087D02*
D03*
X55118D02*
D03*
Y284154D02*
D03*
X57087D02*
D03*
X59055D02*
D03*
X61024D02*
D03*
X62992D02*
D03*
X64961D02*
D03*
X66929D02*
D03*
X68898D02*
D03*
X70866D02*
D03*
X72835D02*
D03*
X74803D02*
D03*
X76772D02*
D03*
X263779Y315846D02*
D03*
X261811D02*
D03*
X259842D02*
D03*
X257874D02*
D03*
X255906D02*
D03*
X253937D02*
D03*
X251969D02*
D03*
X250000D02*
D03*
X248031D02*
D03*
X246063D02*
D03*
X244094D02*
D03*
X242126D02*
D03*
Y284154D02*
D03*
X244094D02*
D03*
X246063D02*
D03*
X248031D02*
D03*
X250000D02*
D03*
X251969D02*
D03*
X253937D02*
D03*
X255906D02*
D03*
X257874D02*
D03*
X259842D02*
D03*
X261811D02*
D03*
X263779D02*
D03*
X76772Y380807D02*
D03*
X74803D02*
D03*
X72835D02*
D03*
X70866D02*
D03*
X68898D02*
D03*
X66929D02*
D03*
X64961D02*
D03*
X62992D02*
D03*
X61024D02*
D03*
X59055D02*
D03*
X57087D02*
D03*
X55118D02*
D03*
Y349114D02*
D03*
X57087D02*
D03*
X59055D02*
D03*
X61024D02*
D03*
X62992D02*
D03*
X64961D02*
D03*
X66929D02*
D03*
X68898D02*
D03*
X70866D02*
D03*
X72835D02*
D03*
X74803D02*
D03*
X76772D02*
D03*
X263779Y380807D02*
D03*
X261811D02*
D03*
X259842D02*
D03*
X257874D02*
D03*
X255906D02*
D03*
X253937D02*
D03*
X251969D02*
D03*
X250000D02*
D03*
X248031D02*
D03*
X246063D02*
D03*
X244094D02*
D03*
X242126D02*
D03*
Y349114D02*
D03*
X244094D02*
D03*
X246063D02*
D03*
X248031D02*
D03*
X250000D02*
D03*
X251969D02*
D03*
X253937D02*
D03*
X255906D02*
D03*
X257874D02*
D03*
X259842D02*
D03*
X261811D02*
D03*
X263779D02*
D03*
D39*
X32342Y19331D02*
D03*
X39823D02*
D03*
Y8701D02*
D03*
X36083D02*
D03*
X32342D02*
D03*
X219350Y19331D02*
D03*
X226831D02*
D03*
Y8701D02*
D03*
X223091D02*
D03*
X219350D02*
D03*
X32342Y84291D02*
D03*
X39823D02*
D03*
Y73661D02*
D03*
X36083D02*
D03*
X32342D02*
D03*
X219350Y84291D02*
D03*
X226831D02*
D03*
Y73661D02*
D03*
X223091D02*
D03*
X219350D02*
D03*
X32342Y149252D02*
D03*
X39823D02*
D03*
Y138622D02*
D03*
X36083D02*
D03*
X32342D02*
D03*
X219350Y149252D02*
D03*
X226831D02*
D03*
Y138622D02*
D03*
X223091D02*
D03*
X219350D02*
D03*
X32342Y214213D02*
D03*
X39823D02*
D03*
Y203583D02*
D03*
X36083D02*
D03*
X32342D02*
D03*
X219350Y214213D02*
D03*
X226831D02*
D03*
Y203583D02*
D03*
X223091D02*
D03*
X219350D02*
D03*
X32342Y279173D02*
D03*
X39823D02*
D03*
Y268543D02*
D03*
X36083D02*
D03*
X32342D02*
D03*
X219350Y279173D02*
D03*
X226831D02*
D03*
Y268543D02*
D03*
X223091D02*
D03*
X219350D02*
D03*
X32342Y344134D02*
D03*
X39823D02*
D03*
Y333504D02*
D03*
X36083D02*
D03*
X32342D02*
D03*
X219350Y344134D02*
D03*
X226831D02*
D03*
Y333504D02*
D03*
X223091D02*
D03*
X219350D02*
D03*
D40*
X148622Y49016D02*
D03*
Y13976D02*
D03*
X335630Y49016D02*
D03*
Y13976D02*
D03*
X148622Y113976D02*
D03*
Y78937D02*
D03*
X335630Y113976D02*
D03*
Y78937D02*
D03*
X148622Y178937D02*
D03*
Y143898D02*
D03*
X335630Y178937D02*
D03*
Y143898D02*
D03*
X148622Y243898D02*
D03*
Y208858D02*
D03*
X335630Y243898D02*
D03*
Y208858D02*
D03*
X148622Y308858D02*
D03*
Y273819D02*
D03*
X335630Y308858D02*
D03*
Y273819D02*
D03*
X148622Y373819D02*
D03*
Y338779D02*
D03*
X335630Y373819D02*
D03*
Y338779D02*
D03*
D41*
X96457Y46850D02*
D03*
Y16142D02*
D03*
X283465Y46850D02*
D03*
Y16142D02*
D03*
X96457Y111811D02*
D03*
Y81102D02*
D03*
X283465Y111811D02*
D03*
Y81102D02*
D03*
X96457Y176772D02*
D03*
Y146063D02*
D03*
X283465Y176772D02*
D03*
Y146063D02*
D03*
X96457Y241732D02*
D03*
Y211024D02*
D03*
X283465Y241732D02*
D03*
Y211024D02*
D03*
X96457Y306693D02*
D03*
Y275984D02*
D03*
X283465Y306693D02*
D03*
Y275984D02*
D03*
X96457Y371654D02*
D03*
Y340945D02*
D03*
X283465Y371654D02*
D03*
Y340945D02*
D03*
D42*
X31998Y45472D02*
D03*
X39478D02*
D03*
X35738Y54527D02*
D03*
X219006Y45472D02*
D03*
X226486D02*
D03*
X222746Y54527D02*
D03*
X31998Y110433D02*
D03*
X39478D02*
D03*
X35738Y119488D02*
D03*
X219006Y110433D02*
D03*
X226486D02*
D03*
X222746Y119488D02*
D03*
X31998Y175394D02*
D03*
X39478D02*
D03*
X35738Y184449D02*
D03*
X219006Y175394D02*
D03*
X226486D02*
D03*
X222746Y184449D02*
D03*
X31998Y240354D02*
D03*
X39478D02*
D03*
X35738Y249409D02*
D03*
X219006Y240354D02*
D03*
X226486D02*
D03*
X222746Y249409D02*
D03*
X31998Y305315D02*
D03*
X39478D02*
D03*
X35738Y314370D02*
D03*
X219006Y305315D02*
D03*
X226486D02*
D03*
X222746Y314370D02*
D03*
X31998Y370276D02*
D03*
X39478D02*
D03*
X35738Y379331D02*
D03*
X219006Y370276D02*
D03*
X226486D02*
D03*
X222746Y379331D02*
D03*
D43*
X39183Y27756D02*
D03*
X32293D02*
D03*
X39183Y37106D02*
D03*
X32293D02*
D03*
X226191Y27756D02*
D03*
X219301D02*
D03*
X226191Y37106D02*
D03*
X219301D02*
D03*
X39183Y92716D02*
D03*
X32293D02*
D03*
X39183Y102067D02*
D03*
X32293D02*
D03*
X226191Y92716D02*
D03*
X219301D02*
D03*
X226191Y102067D02*
D03*
X219301D02*
D03*
X39183Y157677D02*
D03*
X32293D02*
D03*
X39183Y167027D02*
D03*
X32293D02*
D03*
X226191Y157677D02*
D03*
X219301D02*
D03*
X226191Y167027D02*
D03*
X219301D02*
D03*
X39183Y222638D02*
D03*
X32293D02*
D03*
X39183Y231988D02*
D03*
X32293D02*
D03*
X226191Y222638D02*
D03*
X219301D02*
D03*
X226191Y231988D02*
D03*
X219301D02*
D03*
X39183Y287598D02*
D03*
X32293D02*
D03*
X39183Y296949D02*
D03*
X32293D02*
D03*
X226191Y287598D02*
D03*
X219301D02*
D03*
X226191Y296949D02*
D03*
X219301D02*
D03*
X39183Y352559D02*
D03*
X32293D02*
D03*
X39183Y361909D02*
D03*
X32293D02*
D03*
X226191Y352559D02*
D03*
X219301D02*
D03*
X226191Y361909D02*
D03*
X219301D02*
D03*
D44*
X131063Y55768D02*
D03*
Y48878D02*
D03*
X111299Y55768D02*
D03*
Y48878D02*
D03*
X121142Y55728D02*
D03*
Y48839D02*
D03*
X318071Y55768D02*
D03*
Y48878D02*
D03*
X298307Y55768D02*
D03*
Y48878D02*
D03*
X308150Y55728D02*
D03*
Y48839D02*
D03*
X131063Y120728D02*
D03*
Y113839D02*
D03*
X111299Y120728D02*
D03*
Y113839D02*
D03*
X121142Y120689D02*
D03*
Y113799D02*
D03*
X318071Y120728D02*
D03*
Y113839D02*
D03*
X298307Y120728D02*
D03*
Y113839D02*
D03*
X308150Y120689D02*
D03*
Y113799D02*
D03*
X131063Y185689D02*
D03*
Y178799D02*
D03*
X111299Y185689D02*
D03*
Y178799D02*
D03*
X121142Y185650D02*
D03*
Y178760D02*
D03*
X318071Y185689D02*
D03*
Y178799D02*
D03*
X298307Y185689D02*
D03*
Y178799D02*
D03*
X308150Y185650D02*
D03*
Y178760D02*
D03*
X131063Y250650D02*
D03*
Y243760D02*
D03*
X111299Y250650D02*
D03*
Y243760D02*
D03*
X121142Y250610D02*
D03*
Y243721D02*
D03*
X318071Y250650D02*
D03*
Y243760D02*
D03*
X298307Y250650D02*
D03*
Y243760D02*
D03*
X308150Y250610D02*
D03*
Y243721D02*
D03*
X131063Y315610D02*
D03*
Y308720D02*
D03*
X111299Y315610D02*
D03*
Y308720D02*
D03*
X121142Y315571D02*
D03*
Y308681D02*
D03*
X318071Y315610D02*
D03*
Y308720D02*
D03*
X298307Y315610D02*
D03*
Y308720D02*
D03*
X308150Y315571D02*
D03*
Y308681D02*
D03*
X131063Y380571D02*
D03*
Y373681D02*
D03*
X111299Y380571D02*
D03*
Y373681D02*
D03*
X121142Y380532D02*
D03*
Y373642D02*
D03*
X318071Y380571D02*
D03*
Y373681D02*
D03*
X298307Y380571D02*
D03*
Y373681D02*
D03*
X308150Y380532D02*
D03*
Y373642D02*
D03*
D45*
X51142Y8543D02*
D03*
X71142D02*
D03*
X61142D02*
D03*
X238150D02*
D03*
X258150D02*
D03*
X248150D02*
D03*
X51142Y73504D02*
D03*
X71142D02*
D03*
X61142D02*
D03*
X238150D02*
D03*
X258150D02*
D03*
X248150D02*
D03*
X51142Y138465D02*
D03*
X71142D02*
D03*
X61142D02*
D03*
X238150D02*
D03*
X258150D02*
D03*
X248150D02*
D03*
X51142Y203425D02*
D03*
X71142D02*
D03*
X61142D02*
D03*
X238150D02*
D03*
X258150D02*
D03*
X248150D02*
D03*
X51142Y268386D02*
D03*
X71142D02*
D03*
X61142D02*
D03*
X238150D02*
D03*
X258150D02*
D03*
X248150D02*
D03*
X51142Y333347D02*
D03*
X71142D02*
D03*
X61142D02*
D03*
X238150D02*
D03*
X258150D02*
D03*
X248150D02*
D03*
D46*
X81142Y8543D02*
D03*
X268150D02*
D03*
X81142Y73504D02*
D03*
X268150D02*
D03*
X81142Y138465D02*
D03*
X268150D02*
D03*
X81142Y203425D02*
D03*
X268150D02*
D03*
X81142Y268386D02*
D03*
X268150D02*
D03*
X81142Y333347D02*
D03*
X268150D02*
D03*
D47*
X20866Y45276D02*
D03*
Y17717D02*
D03*
X207874Y45276D02*
D03*
Y17717D02*
D03*
X20866Y110236D02*
D03*
Y82677D02*
D03*
X207874Y110236D02*
D03*
Y82677D02*
D03*
X20866Y175197D02*
D03*
Y147638D02*
D03*
X207874Y175197D02*
D03*
Y147638D02*
D03*
X20866Y240158D02*
D03*
Y212598D02*
D03*
X207874Y240158D02*
D03*
Y212598D02*
D03*
X20866Y305118D02*
D03*
Y277559D02*
D03*
X207874Y305118D02*
D03*
Y277559D02*
D03*
X20866Y370079D02*
D03*
Y342520D02*
D03*
X207874Y370079D02*
D03*
Y342520D02*
D03*
D48*
X20866Y35433D02*
D03*
Y27559D02*
D03*
X207874Y35433D02*
D03*
Y27559D02*
D03*
X20866Y100394D02*
D03*
Y92520D02*
D03*
X207874Y100394D02*
D03*
Y92520D02*
D03*
X20866Y165354D02*
D03*
Y157480D02*
D03*
X207874Y165354D02*
D03*
Y157480D02*
D03*
X20866Y230315D02*
D03*
Y222441D02*
D03*
X207874Y230315D02*
D03*
Y222441D02*
D03*
X20866Y295276D02*
D03*
Y287402D02*
D03*
X207874Y295276D02*
D03*
Y287402D02*
D03*
X20866Y360236D02*
D03*
Y352362D02*
D03*
X207874Y360236D02*
D03*
Y352362D02*
D03*
D49*
X12598Y54528D02*
D03*
Y8465D02*
D03*
X199606Y54528D02*
D03*
Y8465D02*
D03*
X12598Y119488D02*
D03*
Y73425D02*
D03*
X199606Y119488D02*
D03*
Y73425D02*
D03*
X12598Y184449D02*
D03*
Y138386D02*
D03*
X199606Y184449D02*
D03*
Y138386D02*
D03*
X12598Y249410D02*
D03*
Y203346D02*
D03*
X199606Y249410D02*
D03*
Y203346D02*
D03*
X12598Y314370D02*
D03*
Y268307D02*
D03*
X199606Y314370D02*
D03*
Y268307D02*
D03*
X12598Y379331D02*
D03*
Y333268D02*
D03*
X199606Y379331D02*
D03*
Y333268D02*
D03*
D50*
X12598Y40354D02*
D03*
Y22638D02*
D03*
X199606Y40354D02*
D03*
Y22638D02*
D03*
X12598Y105315D02*
D03*
Y87598D02*
D03*
X199606Y105315D02*
D03*
Y87598D02*
D03*
X12598Y170276D02*
D03*
Y152559D02*
D03*
X199606Y170276D02*
D03*
Y152559D02*
D03*
X12598Y235236D02*
D03*
Y217520D02*
D03*
X199606Y235236D02*
D03*
Y217520D02*
D03*
X12598Y300197D02*
D03*
Y282480D02*
D03*
X199606Y300197D02*
D03*
Y282480D02*
D03*
X12598Y365158D02*
D03*
Y347441D02*
D03*
X199606Y365158D02*
D03*
Y347441D02*
D03*
M02*
