G04 Layer_Color=32768*
%FSLAX25Y25*%
%MOIN*%
G70*
G01*
G75*
%ADD23C,0.00984*%
%ADD31C,0.01000*%
D23*
X0Y323819D02*
X423228D01*
X0Y258858D02*
X423228D01*
X0Y193898D02*
X423228D01*
X0Y63976D02*
X424213D01*
X0Y128937D02*
X424213D01*
X186024Y0D02*
Y424213D01*
D31*
X428150Y326864D02*
Y322866D01*
X430149Y320866D01*
X432148Y322866D01*
Y326864D01*
X434148Y323865D02*
X438146D01*
X444144Y325865D02*
X443145Y326864D01*
X441145D01*
X440146Y325865D01*
Y321866D01*
X441145Y320866D01*
X443145D01*
X444144Y321866D01*
Y323865D01*
X442145D01*
X446144Y320866D02*
Y326864D01*
X449143D01*
X450142Y325865D01*
Y323865D01*
X449143Y322866D01*
X446144D01*
X448143D02*
X450142Y320866D01*
X455141Y326864D02*
X453141D01*
X452142Y325865D01*
Y321866D01*
X453141Y320866D01*
X455141D01*
X456141Y321866D01*
Y325865D01*
X455141Y326864D01*
X461139D02*
X459140D01*
X458140Y325865D01*
Y321866D01*
X459140Y320866D01*
X461139D01*
X462139Y321866D01*
Y325865D01*
X461139Y326864D01*
X464138D02*
Y322866D01*
X466137Y320866D01*
X468137Y322866D01*
Y326864D01*
X474135D02*
X470136D01*
Y320866D01*
X474135D01*
X470136Y323865D02*
X472135D01*
X428150Y261904D02*
Y257905D01*
X430149Y255906D01*
X432148Y257905D01*
Y261904D01*
X434148Y258905D02*
X438146D01*
X444144Y260904D02*
X443145Y261904D01*
X441145D01*
X440146Y260904D01*
Y256905D01*
X441145Y255906D01*
X443145D01*
X444144Y256905D01*
Y258905D01*
X442145D01*
X446144Y255906D02*
Y261904D01*
X449143D01*
X450142Y260904D01*
Y258905D01*
X449143Y257905D01*
X446144D01*
X448143D02*
X450142Y255906D01*
X455141Y261904D02*
X453141D01*
X452142Y260904D01*
Y256905D01*
X453141Y255906D01*
X455141D01*
X456141Y256905D01*
Y260904D01*
X455141Y261904D01*
X461139D02*
X459140D01*
X458140Y260904D01*
Y256905D01*
X459140Y255906D01*
X461139D01*
X462139Y256905D01*
Y260904D01*
X461139Y261904D01*
X464138D02*
Y257905D01*
X466137Y255906D01*
X468137Y257905D01*
Y261904D01*
X474135D02*
X470136D01*
Y255906D01*
X474135D01*
X470136Y258905D02*
X472135D01*
X427165Y196943D02*
Y192944D01*
X429165Y190945D01*
X431164Y192944D01*
Y196943D01*
X433163Y193944D02*
X437162D01*
X443160Y195943D02*
X442161Y196943D01*
X440161D01*
X439161Y195943D01*
Y191945D01*
X440161Y190945D01*
X442161D01*
X443160Y191945D01*
Y193944D01*
X441161D01*
X445159Y190945D02*
Y196943D01*
X448159D01*
X449158Y195943D01*
Y193944D01*
X448159Y192944D01*
X445159D01*
X447159D02*
X449158Y190945D01*
X454157Y196943D02*
X452157D01*
X451158Y195943D01*
Y191945D01*
X452157Y190945D01*
X454157D01*
X455156Y191945D01*
Y195943D01*
X454157Y196943D01*
X460155D02*
X458155D01*
X457156Y195943D01*
Y191945D01*
X458155Y190945D01*
X460155D01*
X461154Y191945D01*
Y195943D01*
X460155Y196943D01*
X463154D02*
Y192944D01*
X465153Y190945D01*
X467152Y192944D01*
Y196943D01*
X473150D02*
X469152D01*
Y190945D01*
X473150D01*
X469152Y193944D02*
X471151D01*
X428150Y67022D02*
Y63023D01*
X430149Y61024D01*
X432148Y63023D01*
Y67022D01*
X434148Y64023D02*
X438146D01*
X444144Y66022D02*
X443145Y67022D01*
X441145D01*
X440146Y66022D01*
Y62023D01*
X441145Y61024D01*
X443145D01*
X444144Y62023D01*
Y64023D01*
X442145D01*
X446144Y61024D02*
Y67022D01*
X449143D01*
X450142Y66022D01*
Y64023D01*
X449143Y63023D01*
X446144D01*
X448143D02*
X450142Y61024D01*
X455141Y67022D02*
X453141D01*
X452142Y66022D01*
Y62023D01*
X453141Y61024D01*
X455141D01*
X456141Y62023D01*
Y66022D01*
X455141Y67022D01*
X461139D02*
X459140D01*
X458140Y66022D01*
Y62023D01*
X459140Y61024D01*
X461139D01*
X462139Y62023D01*
Y66022D01*
X461139Y67022D01*
X464138D02*
Y63023D01*
X466137Y61024D01*
X468137Y63023D01*
Y67022D01*
X474135D02*
X470136D01*
Y61024D01*
X474135D01*
X470136Y64023D02*
X472135D01*
X429134Y131982D02*
Y127984D01*
X431133Y125984D01*
X433133Y127984D01*
Y131982D01*
X435132Y128983D02*
X439131D01*
X445129Y130983D02*
X444129Y131982D01*
X442130D01*
X441130Y130983D01*
Y126984D01*
X442130Y125984D01*
X444129D01*
X445129Y126984D01*
Y128983D01*
X443129D01*
X447128Y125984D02*
Y131982D01*
X450127D01*
X451127Y130983D01*
Y128983D01*
X450127Y127984D01*
X447128D01*
X449127D02*
X451127Y125984D01*
X456125Y131982D02*
X454126D01*
X453126Y130983D01*
Y126984D01*
X454126Y125984D01*
X456125D01*
X457125Y126984D01*
Y130983D01*
X456125Y131982D01*
X462123D02*
X460124D01*
X459124Y130983D01*
Y126984D01*
X460124Y125984D01*
X462123D01*
X463123Y126984D01*
Y130983D01*
X462123Y131982D01*
X465122D02*
Y127984D01*
X467122Y125984D01*
X469121Y127984D01*
Y131982D01*
X475119D02*
X471120D01*
Y125984D01*
X475119D01*
X471120Y128983D02*
X473120D01*
X182978Y428150D02*
X186977D01*
X188976Y430149D01*
X186977Y432148D01*
X182978D01*
X185977Y434148D02*
Y438146D01*
X183978Y444144D02*
X182978Y443145D01*
Y441145D01*
X183978Y440146D01*
X187977D01*
X188976Y441145D01*
Y443145D01*
X187977Y444144D01*
X185977D01*
Y442145D01*
X188976Y446144D02*
X182978D01*
Y449143D01*
X183978Y450142D01*
X185977D01*
X186977Y449143D01*
Y446144D01*
Y448143D02*
X188976Y450142D01*
X182978Y455141D02*
Y453141D01*
X183978Y452142D01*
X187977D01*
X188976Y453141D01*
Y455141D01*
X187977Y456141D01*
X183978D01*
X182978Y455141D01*
Y461139D02*
Y459140D01*
X183978Y458140D01*
X187977D01*
X188976Y459140D01*
Y461139D01*
X187977Y462139D01*
X183978D01*
X182978Y461139D01*
Y464138D02*
X186977D01*
X188976Y466137D01*
X186977Y468137D01*
X182978D01*
Y474135D02*
Y470136D01*
X188976D01*
Y474135D01*
X185977Y470136D02*
Y472135D01*
M02*
