G04 Layer_Color=8421504*
%FSLAX25Y25*%
%MOIN*%
G70*
G01*
G75*
%ADD10R,0.07874X0.02362*%
%ADD11R,0.05315X0.04528*%
%ADD12R,0.04528X0.05315*%
%ADD13R,0.02362X0.03543*%
%ADD14R,0.09842X0.07874*%
%ADD15R,0.09055X0.01968*%
%ADD16O,0.06102X0.00984*%
%ADD17O,0.00984X0.06102*%
D10*
X307874Y202658D02*
D03*
Y212657D02*
D03*
Y197658D02*
D03*
Y207658D02*
D03*
X286614Y202658D02*
D03*
Y207658D02*
D03*
Y197658D02*
D03*
Y212657D02*
D03*
D11*
X312205Y161811D02*
D03*
Y154921D02*
D03*
X266142Y249410D02*
D03*
Y256299D02*
D03*
X257087Y249311D02*
D03*
Y256201D02*
D03*
X229095Y249311D02*
D03*
Y256201D02*
D03*
X219724Y249311D02*
D03*
Y256201D02*
D03*
X247835Y249311D02*
D03*
Y256201D02*
D03*
X238464Y249311D02*
D03*
Y256201D02*
D03*
X200984Y249311D02*
D03*
Y256201D02*
D03*
X210354Y249311D02*
D03*
Y256201D02*
D03*
X267717Y232776D02*
D03*
Y225886D02*
D03*
D12*
X301673Y241634D02*
D03*
X308563D02*
D03*
X301772Y250886D02*
D03*
X308661D02*
D03*
D13*
X214961Y206890D02*
D03*
X218701Y197835D02*
D03*
X211221D02*
D03*
D14*
X171968Y186980D02*
D03*
Y222020D02*
D03*
X193622D02*
D03*
Y186980D02*
D03*
D15*
X194016Y210799D02*
D03*
Y207650D02*
D03*
Y204500D02*
D03*
Y201351D02*
D03*
Y198201D02*
D03*
D16*
X266535Y214862D02*
D03*
Y212894D02*
D03*
Y210925D02*
D03*
Y208957D02*
D03*
Y206988D02*
D03*
Y205020D02*
D03*
Y203051D02*
D03*
Y201083D02*
D03*
Y199114D02*
D03*
Y197146D02*
D03*
Y195177D02*
D03*
Y193209D02*
D03*
X234842D02*
D03*
Y195177D02*
D03*
Y197146D02*
D03*
Y199114D02*
D03*
Y201083D02*
D03*
Y203051D02*
D03*
Y205020D02*
D03*
Y206988D02*
D03*
Y208957D02*
D03*
Y210925D02*
D03*
Y212894D02*
D03*
Y214862D02*
D03*
D17*
X261516Y188189D02*
D03*
X259547D02*
D03*
X257579D02*
D03*
X255610D02*
D03*
X253642D02*
D03*
X251673D02*
D03*
X249705D02*
D03*
X247736D02*
D03*
X245768D02*
D03*
X243799D02*
D03*
X241831D02*
D03*
X239862D02*
D03*
Y219882D02*
D03*
X241831D02*
D03*
X243799D02*
D03*
X245768D02*
D03*
X247736D02*
D03*
X249705D02*
D03*
X251673D02*
D03*
X253642D02*
D03*
X255610D02*
D03*
X257579D02*
D03*
X259547D02*
D03*
X261516D02*
D03*
M02*
