G04 Layer_Physical_Order=1*
G04 Layer_Color=16776960*
%FSLAX25Y25*%
%MOIN*%
G70*
G01*
G75*
%ADD10O,0.00984X0.06102*%
%ADD11O,0.06102X0.00984*%
%ADD12R,0.09842X0.07874*%
%ADD13R,0.09055X0.01968*%
%ADD14R,0.02362X0.03543*%
%ADD15R,0.04528X0.05315*%
%ADD16R,0.05315X0.04528*%
%ADD17R,0.07874X0.02362*%
%ADD18C,0.01181*%
%ADD19C,0.03937*%
%ADD20C,0.02362*%
%ADD21C,0.06000*%
%ADD22R,0.06000X0.06000*%
%ADD23C,0.18740*%
%ADD24R,0.06653X0.06653*%
%ADD25C,0.06653*%
%ADD26C,0.06299*%
%ADD27C,0.05118*%
D10*
X261516Y219882D02*
D03*
X259547D02*
D03*
X257579D02*
D03*
X255610D02*
D03*
X253642D02*
D03*
X251673D02*
D03*
X249705D02*
D03*
X247736D02*
D03*
X245768D02*
D03*
X243799D02*
D03*
X241831D02*
D03*
X239862D02*
D03*
Y188189D02*
D03*
X241831D02*
D03*
X243799D02*
D03*
X245768D02*
D03*
X247736D02*
D03*
X249705D02*
D03*
X251673D02*
D03*
X253642D02*
D03*
X255610D02*
D03*
X257579D02*
D03*
X259547D02*
D03*
X261516D02*
D03*
D11*
X234842Y214862D02*
D03*
Y212894D02*
D03*
Y210925D02*
D03*
Y208957D02*
D03*
Y206988D02*
D03*
Y205020D02*
D03*
Y203051D02*
D03*
Y201083D02*
D03*
Y199114D02*
D03*
Y197146D02*
D03*
Y195177D02*
D03*
Y193209D02*
D03*
X266535D02*
D03*
Y195177D02*
D03*
Y197146D02*
D03*
Y199114D02*
D03*
Y201083D02*
D03*
Y203051D02*
D03*
Y205020D02*
D03*
Y206988D02*
D03*
Y208957D02*
D03*
Y210925D02*
D03*
Y212894D02*
D03*
Y214862D02*
D03*
D12*
X193622Y186980D02*
D03*
Y222020D02*
D03*
X171968D02*
D03*
Y186980D02*
D03*
D13*
X194016Y198201D02*
D03*
Y201351D02*
D03*
Y204500D02*
D03*
Y207650D02*
D03*
Y210799D02*
D03*
D14*
X211221Y197835D02*
D03*
X218701D02*
D03*
X214961Y206890D02*
D03*
D15*
X301673Y224311D02*
D03*
X308563D02*
D03*
X308661Y250886D02*
D03*
X301772D02*
D03*
X308563Y241634D02*
D03*
X301673D02*
D03*
D16*
X210354Y256201D02*
D03*
Y249311D02*
D03*
X200984Y256201D02*
D03*
Y249311D02*
D03*
X238464Y256201D02*
D03*
Y249311D02*
D03*
X247835Y256201D02*
D03*
Y249311D02*
D03*
X219724Y256201D02*
D03*
Y249311D02*
D03*
X229095Y256201D02*
D03*
Y249311D02*
D03*
X257087Y256201D02*
D03*
Y249311D02*
D03*
X266142Y256299D02*
D03*
Y249410D02*
D03*
X312205Y154921D02*
D03*
Y161811D02*
D03*
D17*
X286614Y212657D02*
D03*
Y197658D02*
D03*
Y207658D02*
D03*
Y202658D02*
D03*
X307874Y207658D02*
D03*
Y197658D02*
D03*
Y212657D02*
D03*
Y202658D02*
D03*
D18*
X308366Y213150D02*
Y230217D01*
X266535Y226181D02*
X268307Y224410D01*
X260827Y226181D02*
X266535D01*
X259547Y224902D02*
X260827Y226181D01*
X287106Y224410D02*
X295374Y232677D01*
X268307Y224410D02*
X287106D01*
X307874Y212657D02*
X308366Y213150D01*
X300787Y241634D02*
X301772Y240650D01*
X301476Y197756D02*
Y224311D01*
X238464Y236929D02*
Y249311D01*
X240846Y193209D02*
X245571Y197933D01*
X301378Y197658D02*
X307874D01*
X296831D02*
X301378D01*
X301476Y197756D01*
X259547Y219882D02*
Y224902D01*
X295374Y232677D02*
X305906D01*
X308366Y230217D01*
X283858Y250590D02*
X301772D01*
X243799Y218588D02*
Y224480D01*
X222441Y242815D02*
X227953D01*
X219724Y245532D02*
X222441Y242815D01*
X219724Y245532D02*
Y249311D01*
X227953Y242815D02*
X243799Y226969D01*
X227461Y239665D02*
X241831Y225295D01*
X220000Y239665D02*
X227461D01*
X210354Y249311D02*
X220000Y239665D01*
X243799Y224480D02*
Y226969D01*
X241831Y219882D02*
Y225295D01*
X243799Y219882D02*
Y224480D01*
X243799Y224480D01*
X296673Y207658D02*
X296752Y207579D01*
X286614Y207658D02*
X296673D01*
X193622Y222020D02*
X193693Y221949D01*
X209744D01*
X296752Y197579D02*
X296831Y197658D01*
X296752Y191535D02*
Y197579D01*
X291831Y202658D02*
X296831Y197658D01*
X318406Y206653D02*
X330138Y218386D01*
X269390Y259547D02*
X308661D01*
X266142Y256299D02*
X269390Y259547D01*
X207256Y210799D02*
X209744Y213287D01*
X194016Y210799D02*
X207256D01*
X214961Y206890D02*
Y216732D01*
X209744Y221949D02*
X214961Y216732D01*
X187500Y231299D02*
X190551D01*
X193622Y228228D01*
Y222020D02*
Y228228D01*
X245571Y197835D02*
X245768Y198031D01*
Y213386D01*
X238464Y236929D02*
X245768Y229626D01*
X257087Y236713D02*
Y249311D01*
X249705Y229331D02*
X257087Y236713D01*
X249705Y224557D02*
Y229331D01*
X267421Y243898D02*
X277165D01*
X251673Y228150D02*
X267421Y243898D01*
X251673Y219882D02*
Y228150D01*
X268406Y241634D02*
X283760D01*
X253642Y226870D02*
X268406Y241634D01*
X253642Y219882D02*
Y226870D01*
X245768Y219882D02*
Y229626D01*
X257087Y262697D02*
X257185Y262795D01*
X257087Y256201D02*
Y262697D01*
X193622Y186980D02*
X194016Y187374D01*
Y198201D01*
X296752Y207579D02*
Y213484D01*
X293209Y217028D02*
X296752Y213484D01*
X276575Y217028D02*
X293209D01*
X272441Y212894D02*
X276575Y217028D01*
X266535Y212894D02*
X272441D01*
X308661Y250886D02*
Y259547D01*
X308563Y241634D02*
X308661Y241732D01*
Y250886D01*
X301772Y250590D02*
Y250886D01*
Y250000D02*
Y250590D01*
X283760Y241634D02*
X300787D01*
X318406Y202658D02*
Y206653D01*
X307874Y207658D02*
X313169D01*
X318307Y212795D01*
X281555Y171496D02*
Y178839D01*
Y171496D02*
X298130Y154921D01*
X312205D01*
X318406Y168012D02*
Y202658D01*
X307874D02*
X318406D01*
X312205Y161811D02*
X318406Y168012D01*
X247736Y235728D02*
X247736Y235728D01*
X247736Y235728D02*
Y241240D01*
X247835Y241338D01*
Y249311D01*
X226181Y195177D02*
X234842D01*
X224016Y197343D02*
X226181Y195177D01*
X283760Y241634D02*
X283858Y241535D01*
Y230906D02*
Y241535D01*
X186909Y249508D02*
X186909Y249508D01*
X266535Y170965D02*
Y193209D01*
X270768Y182283D02*
X274508Y186024D01*
Y204232D01*
X271752Y206988D02*
X274508Y204232D01*
X266535Y206988D02*
X271752D01*
X249705Y219882D02*
Y224557D01*
X249705Y224557D01*
X277165Y243898D02*
X283858Y250590D01*
X245571Y197835D02*
Y197933D01*
X234842Y193209D02*
X240846D01*
X245768Y213386D02*
X259941D01*
X245768D02*
X245768Y213386D01*
X245768Y219882D02*
X245768Y219882D01*
Y213386D02*
Y219882D01*
X259941Y213386D02*
X261417Y214862D01*
X266535D01*
X261417D02*
X261516Y214961D01*
Y219882D01*
X211221Y198228D02*
Y202559D01*
X211417Y202362D01*
X194016Y204500D02*
X202586D01*
X205906Y201181D01*
Y196457D02*
Y201181D01*
Y196457D02*
X208661Y193701D01*
X218701D01*
Y193898D01*
Y197835D01*
Y198228D01*
X194016Y198201D02*
Y201351D01*
Y207650D02*
X194044Y207622D01*
X206157D01*
X211221Y202559D01*
X247736Y219882D02*
Y235728D01*
X229095Y249311D02*
X238464D01*
Y256201D02*
X247835D01*
X219724D02*
X229095D01*
X200984D02*
X210354D01*
X226279Y223524D02*
X233465D01*
X237106Y219882D01*
X239862D01*
X226378Y214764D02*
X234744D01*
X234842Y214862D01*
X186909Y249508D02*
X200787D01*
X200984Y249311D01*
X257185Y249410D02*
X266142D01*
X257087Y249311D02*
X257185Y249410D01*
X211417Y202362D02*
X226391D01*
X231607Y197146D01*
X234842D01*
X239807Y188134D02*
X239862Y188189D01*
X218701Y193898D02*
X224465Y188134D01*
X239807D01*
X275945Y212657D02*
X286614D01*
X274213Y210925D02*
X275945Y212657D01*
X266535Y210925D02*
X274213D01*
X286614Y202658D02*
X291831D01*
X224016Y197343D02*
Y197933D01*
X260335Y153937D02*
Y164764D01*
X266535Y170965D01*
X240335Y153937D02*
Y160315D01*
X257579Y177559D01*
Y188189D01*
X280787Y197658D02*
X286614D01*
X266535Y208957D02*
X273917D01*
X277362Y201083D02*
X280787Y197658D01*
X277362Y201083D02*
Y205512D01*
X273917Y208957D02*
X277362Y205512D01*
D19*
X226279Y223524D02*
D03*
X226378Y214764D02*
D03*
X186909Y249508D02*
D03*
D20*
X183780Y213161D02*
D03*
Y195839D02*
D03*
D21*
X240335Y153937D02*
D03*
X260335D02*
D03*
X250335D02*
D03*
D22*
X270335D02*
D03*
D23*
X335728Y158287D02*
D03*
Y256673D02*
D03*
D24*
X330138Y229291D02*
D03*
D25*
X341319Y223839D02*
D03*
X330138Y218386D02*
D03*
X341319Y212933D02*
D03*
X330138Y207480D02*
D03*
X341319Y202028D02*
D03*
X330138Y196575D02*
D03*
X341319Y191122D02*
D03*
X330138Y185669D02*
D03*
D26*
X283858Y230906D02*
D03*
Y250590D02*
D03*
X311555Y178839D02*
D03*
X281555D02*
D03*
D27*
X186909Y231299D02*
D03*
X238484Y241240D02*
D03*
X257185Y262795D02*
D03*
X308661Y259547D02*
D03*
X318307Y212795D02*
D03*
X296752Y207579D02*
D03*
X209744Y221949D02*
D03*
X247736Y241240D02*
D03*
X209744Y213287D02*
D03*
X270768Y182283D02*
D03*
X245571Y197835D02*
D03*
X296752Y191535D02*
D03*
X224016Y197933D02*
D03*
M02*
