G04 Layer_Color=16711935*
%FSLAX25Y25*%
%MOIN*%
G70*
G01*
G75*
%ADD32R,0.06115X0.05328*%
%ADD33R,0.05328X0.06115*%
%ADD39C,0.07099*%
%ADD40C,0.04737*%
%ADD41C,0.07453*%
%ADD42R,0.07453X0.07453*%
%ADD43C,0.19540*%
%ADD44C,0.06800*%
%ADD45R,0.06800X0.06800*%
%ADD46C,0.03162*%
%ADD47C,0.05918*%
%ADD48R,0.04737X0.09265*%
%ADD49R,0.13595X0.09265*%
%ADD50R,0.08674X0.07493*%
D32*
X236122Y182283D02*
D03*
Y175394D02*
D03*
X245407Y182283D02*
D03*
Y175394D02*
D03*
X254692D02*
D03*
Y182283D02*
D03*
X263976Y175394D02*
D03*
Y182283D02*
D03*
D33*
X202362Y249213D02*
D03*
X195473D02*
D03*
X202362Y240223D02*
D03*
X195473D02*
D03*
X202362Y231234D02*
D03*
X195473D02*
D03*
X202362Y222244D02*
D03*
X195473D02*
D03*
X202362Y213255D02*
D03*
X195473D02*
D03*
X202362Y204265D02*
D03*
X195473D02*
D03*
X202362Y195276D02*
D03*
X195473D02*
D03*
X293799Y154035D02*
D03*
X300689D02*
D03*
X293799Y164075D02*
D03*
X300689D02*
D03*
X293799Y173524D02*
D03*
X300689D02*
D03*
X293799Y183661D02*
D03*
X300689D02*
D03*
D39*
X281555Y178839D02*
D03*
X311555D02*
D03*
X283858Y250590D02*
D03*
Y230906D02*
D03*
D40*
X186909Y249508D02*
D03*
X226378Y214764D02*
D03*
X226279Y223524D02*
D03*
D41*
X330138Y185669D02*
D03*
X341319Y191122D02*
D03*
X330138Y196575D02*
D03*
X341319Y202028D02*
D03*
X330138Y207480D02*
D03*
X341319Y212933D02*
D03*
X330138Y218386D02*
D03*
X341319Y223839D02*
D03*
D42*
X330138Y229291D02*
D03*
D43*
X335728Y256673D02*
D03*
Y158287D02*
D03*
D44*
X250335Y153937D02*
D03*
X260335D02*
D03*
X240335D02*
D03*
D45*
X270335D02*
D03*
D46*
X183780Y195839D02*
D03*
Y213161D02*
D03*
D47*
X224016Y197933D02*
D03*
X296752Y191535D02*
D03*
X245571Y197835D02*
D03*
X270768Y182283D02*
D03*
X209744Y213287D02*
D03*
X247736Y241240D02*
D03*
X209744Y221949D02*
D03*
X296752Y207579D02*
D03*
X318307Y212795D02*
D03*
X308661Y259547D02*
D03*
X257185Y262795D02*
D03*
X238484Y241240D02*
D03*
X186909Y231299D02*
D03*
D48*
X189469Y177461D02*
D03*
X198524D02*
D03*
X207579D02*
D03*
D49*
X198524Y154429D02*
D03*
D50*
X222736Y171358D02*
D03*
Y154429D02*
D03*
M02*
