G04 Layer_Color=8388736*
%FSLAX25Y25*%
%MOIN*%
G70*
G01*
G75*
%ADD31R,0.08674X0.03162*%
%ADD32R,0.06115X0.05328*%
%ADD33R,0.05328X0.06115*%
%ADD34R,0.03162X0.04343*%
%ADD35R,0.10642X0.08674*%
%ADD36R,0.09855X0.02768*%
%ADD37O,0.06902X0.01784*%
%ADD38O,0.01784X0.06902*%
%ADD39C,0.07099*%
%ADD40C,0.04737*%
%ADD41C,0.07453*%
%ADD42R,0.07453X0.07453*%
%ADD43C,0.19540*%
%ADD44C,0.06800*%
%ADD45R,0.06800X0.06800*%
%ADD46C,0.03162*%
%ADD47C,0.05918*%
D31*
X307874Y202658D02*
D03*
Y212657D02*
D03*
Y197658D02*
D03*
Y207658D02*
D03*
X286614Y202658D02*
D03*
Y207658D02*
D03*
Y197658D02*
D03*
Y212657D02*
D03*
D32*
X312205Y161811D02*
D03*
Y154921D02*
D03*
X266142Y249410D02*
D03*
Y256299D02*
D03*
X257087Y249311D02*
D03*
Y256201D02*
D03*
X229095Y249311D02*
D03*
Y256201D02*
D03*
X219724Y249311D02*
D03*
Y256201D02*
D03*
X247835Y249311D02*
D03*
Y256201D02*
D03*
X238464Y249311D02*
D03*
Y256201D02*
D03*
X200984Y249311D02*
D03*
Y256201D02*
D03*
X210354Y249311D02*
D03*
Y256201D02*
D03*
X267717Y232776D02*
D03*
Y225886D02*
D03*
D33*
X301673Y241634D02*
D03*
X308563D02*
D03*
X301772Y250886D02*
D03*
X308661D02*
D03*
D34*
X214961Y206890D02*
D03*
X218701Y197835D02*
D03*
X211221D02*
D03*
D35*
X171968Y186980D02*
D03*
Y222020D02*
D03*
X193622D02*
D03*
Y186980D02*
D03*
D36*
X194016Y210799D02*
D03*
Y207650D02*
D03*
Y204500D02*
D03*
Y201351D02*
D03*
Y198201D02*
D03*
D37*
X266535Y214862D02*
D03*
Y212894D02*
D03*
Y210925D02*
D03*
Y208957D02*
D03*
Y206988D02*
D03*
Y205020D02*
D03*
Y203051D02*
D03*
Y201083D02*
D03*
Y199114D02*
D03*
Y197146D02*
D03*
Y195177D02*
D03*
Y193209D02*
D03*
X234842D02*
D03*
Y195177D02*
D03*
Y197146D02*
D03*
Y199114D02*
D03*
Y201083D02*
D03*
Y203051D02*
D03*
Y205020D02*
D03*
Y206988D02*
D03*
Y208957D02*
D03*
Y210925D02*
D03*
Y212894D02*
D03*
Y214862D02*
D03*
D38*
X261516Y188189D02*
D03*
X259547D02*
D03*
X257579D02*
D03*
X255610D02*
D03*
X253642D02*
D03*
X251673D02*
D03*
X249705D02*
D03*
X247736D02*
D03*
X245768D02*
D03*
X243799D02*
D03*
X241831D02*
D03*
X239862D02*
D03*
Y219882D02*
D03*
X241831D02*
D03*
X243799D02*
D03*
X245768D02*
D03*
X247736D02*
D03*
X249705D02*
D03*
X251673D02*
D03*
X253642D02*
D03*
X255610D02*
D03*
X257579D02*
D03*
X259547D02*
D03*
X261516D02*
D03*
D39*
X281555Y178839D02*
D03*
X311555D02*
D03*
X283858Y250590D02*
D03*
Y230906D02*
D03*
D40*
X186909Y249508D02*
D03*
X226378Y214764D02*
D03*
X226279Y223524D02*
D03*
D41*
X330138Y185669D02*
D03*
X341319Y191122D02*
D03*
X330138Y196575D02*
D03*
X341319Y202028D02*
D03*
X330138Y207480D02*
D03*
X341319Y212933D02*
D03*
X330138Y218386D02*
D03*
X341319Y223839D02*
D03*
D42*
X330138Y229291D02*
D03*
D43*
X335728Y256673D02*
D03*
Y158287D02*
D03*
D44*
X250335Y153937D02*
D03*
X260335D02*
D03*
X240335D02*
D03*
D45*
X270335D02*
D03*
D46*
X183780Y195839D02*
D03*
Y213161D02*
D03*
D47*
X224016Y197933D02*
D03*
X296752Y191535D02*
D03*
X245571Y197835D02*
D03*
X270768Y182283D02*
D03*
X209744Y213287D02*
D03*
X247736Y241240D02*
D03*
X209744Y221949D02*
D03*
X296752Y207579D02*
D03*
X318307Y212795D02*
D03*
X308661Y259547D02*
D03*
X257185Y262795D02*
D03*
X238484Y241240D02*
D03*
X186909Y231299D02*
D03*
M02*
