G04 Layer_Physical_Order=2*
G04 Layer_Color=66047*
%FSLAX25Y25*%
%MOIN*%
G70*
G01*
G75*
%ADD15R,0.04528X0.05315*%
%ADD16R,0.05315X0.04528*%
%ADD18C,0.01181*%
%ADD19C,0.03937*%
%ADD20C,0.02362*%
%ADD21C,0.06000*%
%ADD22R,0.06000X0.06000*%
%ADD23C,0.18740*%
%ADD24R,0.06653X0.06653*%
%ADD25C,0.06653*%
%ADD26C,0.06299*%
%ADD27C,0.05118*%
%ADD28R,0.07874X0.06693*%
%ADD29R,0.12795X0.08465*%
%ADD30R,0.03937X0.08465*%
D15*
X300689Y183661D02*
D03*
X293799D02*
D03*
X300689Y173524D02*
D03*
X293799D02*
D03*
X300689Y164075D02*
D03*
X293799D02*
D03*
X300689Y154035D02*
D03*
X293799D02*
D03*
X195473Y195276D02*
D03*
X202362D02*
D03*
X195473Y204265D02*
D03*
X202362D02*
D03*
X195473Y213255D02*
D03*
X202362D02*
D03*
X195473Y222244D02*
D03*
X202362D02*
D03*
X195473Y231234D02*
D03*
X202362D02*
D03*
X195473Y240223D02*
D03*
X202362D02*
D03*
X195473Y249213D02*
D03*
X202362D02*
D03*
D16*
X263976Y182283D02*
D03*
Y175394D02*
D03*
X254692Y182283D02*
D03*
Y175394D02*
D03*
X245407D02*
D03*
Y182283D02*
D03*
X236122Y175394D02*
D03*
Y182283D02*
D03*
D18*
X296673Y207579D02*
Y207658D01*
Y201161D02*
Y207579D01*
X193734Y231201D02*
X194619Y232087D01*
X198524Y154429D02*
Y177461D01*
X293799Y188583D02*
X296752Y191535D01*
X293799Y183661D02*
Y188583D01*
X286319Y183661D02*
X293799D01*
X278445Y191535D02*
X286319Y183661D01*
X265453Y191535D02*
X278445D01*
X296673Y201161D02*
X304232Y193602D01*
Y187205D02*
Y193602D01*
X300689Y183661D02*
X304232Y187205D01*
X336024Y204724D02*
Y212933D01*
X341319D01*
X296752Y207579D02*
X330039D01*
X296673D02*
X296752D01*
X296595Y207658D02*
X296673Y207579D01*
X247638Y207658D02*
X296595D01*
X195473Y249213D02*
X195492D01*
X189469Y177461D02*
Y184153D01*
X195473Y190157D01*
Y195276D01*
X186909Y231299D02*
X187008Y231201D01*
X193734D01*
X194619Y232087D02*
X195473Y231234D01*
X330039Y207579D02*
X330138Y207480D01*
X238484Y256496D02*
X250886D01*
X193898D02*
X238484D01*
Y241240D02*
Y256496D01*
X186909Y249508D02*
X193898Y256496D01*
X250886D02*
X257185Y262795D01*
X195473Y195276D02*
Y204265D01*
Y213255D01*
X318445Y212933D02*
X336024D01*
X333268Y201969D02*
X336024Y204724D01*
X319291Y201969D02*
X333268D01*
X311555Y194232D02*
X319291Y201969D01*
X311555Y178839D02*
Y194232D01*
X247736Y241240D02*
X266043Y259547D01*
X308661D01*
X318307Y212795D02*
X318445Y212933D01*
X209744Y221949D02*
X224016Y207677D01*
Y207658D02*
Y207677D01*
Y207658D02*
X247638D01*
X224016Y197933D02*
Y207658D01*
X247638D02*
X247736Y207756D01*
Y241240D01*
X198524Y177461D02*
Y185433D01*
X202362Y189272D01*
Y195276D01*
Y204265D01*
Y240223D02*
Y249213D01*
Y231234D02*
Y240223D01*
Y222244D02*
Y231234D01*
Y213255D02*
Y222244D01*
Y213255D02*
X202395Y213287D01*
X209744D01*
X195473Y240223D02*
Y249213D01*
Y231234D02*
Y240223D01*
Y222244D02*
Y231234D01*
Y213255D02*
Y222244D01*
X207579Y184941D02*
X209744Y187106D01*
Y213287D01*
X207579Y177461D02*
Y184941D01*
X222736Y171358D02*
Y183563D01*
X237008Y197835D01*
X245407Y158865D02*
X250335Y153937D01*
X245407Y158865D02*
Y175394D01*
X254692D01*
X236122D02*
X245407D01*
X270335Y153937D02*
Y169035D01*
X263976Y175394D02*
X270335Y169035D01*
X245407Y197671D02*
X245571Y197835D01*
X245407Y182283D02*
Y197671D01*
X236122Y182283D02*
X245407D01*
X254692D02*
X263976D01*
X270768D01*
X198524Y154429D02*
X222736D01*
X222736Y154429D01*
X293799Y154035D02*
Y164075D01*
Y173524D01*
Y183661D01*
X300689Y154035D02*
Y164075D01*
Y173524D01*
Y183661D01*
X237008Y197835D02*
X245571D01*
X259154D01*
X265453Y191535D01*
X270433Y154035D02*
X293799D01*
X270335Y153937D02*
X270433Y154035D01*
X300689Y150394D02*
Y154035D01*
X297539Y147244D02*
X300689Y150394D01*
X257028Y147244D02*
X297539D01*
X250335Y153937D02*
X257028Y147244D01*
D19*
X226279Y223524D02*
D03*
X226378Y214764D02*
D03*
X186909Y249508D02*
D03*
D20*
X183780Y213161D02*
D03*
Y195839D02*
D03*
D21*
X240335Y153937D02*
D03*
X260335D02*
D03*
X250335D02*
D03*
D22*
X270335D02*
D03*
D23*
X335728Y158287D02*
D03*
Y256673D02*
D03*
D24*
X330138Y229291D02*
D03*
D25*
X341319Y223839D02*
D03*
X330138Y218386D02*
D03*
X341319Y212933D02*
D03*
X330138Y207480D02*
D03*
X341319Y202028D02*
D03*
X330138Y196575D02*
D03*
X341319Y191122D02*
D03*
X330138Y185669D02*
D03*
D26*
X283858Y230906D02*
D03*
Y250590D02*
D03*
X311555Y178839D02*
D03*
X281555D02*
D03*
D27*
X186909Y231299D02*
D03*
X238484Y241240D02*
D03*
X257185Y262795D02*
D03*
X308661Y259547D02*
D03*
X318307Y212795D02*
D03*
X296752Y207579D02*
D03*
X209744Y221949D02*
D03*
X247736Y241240D02*
D03*
X209744Y213287D02*
D03*
X270768Y182283D02*
D03*
X245571Y197835D02*
D03*
X296752Y191535D02*
D03*
X224016Y197933D02*
D03*
D28*
X222736Y154429D02*
D03*
Y171358D02*
D03*
D29*
X198524Y154429D02*
D03*
D30*
X207579Y177461D02*
D03*
X198524D02*
D03*
X189469D02*
D03*
M02*
