M48
INCH,TZ
T10C0.024
T11C0.031
T12C0.039
T13C0.118
%
T10
X031831Y021280
X029677Y020756
X029677Y019154
X027079Y018228
X024559Y019783
X022402Y019795
X022638Y021476
X022626Y022354
X020976Y022197
X020976Y021327
X018689Y023130
X018689Y024953
X023850Y024126
X024772Y024126
X025717Y026280
X030866Y025957
T11
X024031Y015394
X025031Y015394
X026031Y015394
X027035Y015394
X028154Y017882
X031157Y017882
X028386Y023091
X028386Y025059
T12
X033016Y018567
X033016Y019657
X033016Y020748
X033016Y021839
X033016Y022929
X034130Y022382
X034130Y021291
X034130Y020201
X034130Y019110
X018378Y019583
X018378Y021315
T13
X033575Y015831
X033575Y025665
M30

