G04 This is an RS-274x file exported by *
G04 gerbv version 2.6A *
G04 More information is available about gerbv at *
G04 http://gerbv.geda-project.org/ *
G04 --End of header info--*
%MOIN*%
%FSLAX34Y34*%
%IPPOS*%
G04 --Define apertures--*
%ADD10R,0.0787X0.0236*%
%ADD11R,0.0532X0.0453*%
%ADD12R,0.0453X0.0532*%
%ADD13R,0.0236X0.0354*%
%ADD14R,0.0984X0.0787*%
%ADD15R,0.0906X0.0197*%
%ADD16O,0.0610X0.0098*%
%ADD17O,0.0098X0.0610*%
%ADD18C,0.0118*%
%ADD19C,0.0630*%
%ADD20C,0.0394*%
%ADD21C,0.0665*%
%ADD22R,0.0665X0.0665*%
%ADD23C,0.1874*%
%ADD24C,0.0600*%
%ADD25R,0.0600X0.0600*%
%ADD26C,0.0236*%
%ADD27C,0.0512*%
G04 --Start main section--*
G54D10*
G01X0030787Y0020266D03*
G01X0030787Y0021266D03*
G01X0030787Y0019766D03*
G01X0030787Y0020766D03*
G01X0028661Y0020266D03*
G01X0028661Y0020766D03*
G01X0028661Y0019766D03*
G01X0028661Y0021266D03*
G54D11*
G01X0031221Y0016181D03*
G01X0031221Y0015492D03*
G01X0026614Y0024941D03*
G01X0026614Y0025630D03*
G01X0025709Y0024931D03*
G01X0025709Y0025620D03*
G01X0022910Y0024931D03*
G01X0022910Y0025620D03*
G01X0021972Y0024931D03*
G01X0021972Y0025620D03*
G01X0024784Y0024931D03*
G01X0024784Y0025620D03*
G01X0023846Y0024931D03*
G01X0023846Y0025620D03*
G01X0020098Y0024931D03*
G01X0020098Y0025620D03*
G01X0021035Y0024931D03*
G01X0021035Y0025620D03*
G01X0026772Y0023278D03*
G01X0026772Y0022589D03*
G54D12*
G01X0030167Y0024163D03*
G01X0030856Y0024163D03*
G01X0030177Y0025089D03*
G01X0030866Y0025089D03*
G54D13*
G01X0021496Y0020689D03*
G01X0021870Y0019784D03*
G01X0021122Y0019784D03*
G54D14*
G01X0017197Y0018698D03*
G01X0017197Y0022202D03*
G01X0019362Y0022202D03*
G01X0019362Y0018698D03*
G54D15*
G01X0019402Y0021080D03*
G01X0019402Y0020765D03*
G01X0019402Y0020450D03*
G01X0019402Y0020135D03*
G01X0019402Y0019820D03*
G54D16*
G01X0026654Y0021486D03*
G01X0026654Y0021289D03*
G01X0026654Y0021093D03*
G01X0026654Y0020896D03*
G01X0026654Y0020699D03*
G01X0026654Y0020502D03*
G01X0026654Y0020305D03*
G01X0026654Y0020108D03*
G01X0026654Y0019911D03*
G01X0026654Y0019715D03*
G01X0026654Y0019518D03*
G01X0026654Y0019321D03*
G01X0023484Y0019321D03*
G01X0023484Y0019518D03*
G01X0023484Y0019715D03*
G01X0023484Y0019911D03*
G01X0023484Y0020108D03*
G01X0023484Y0020305D03*
G01X0023484Y0020502D03*
G01X0023484Y0020699D03*
G01X0023484Y0020896D03*
G01X0023484Y0021093D03*
G01X0023484Y0021289D03*
G01X0023484Y0021486D03*
G54D17*
G01X0026152Y0018819D03*
G01X0025955Y0018819D03*
G01X0025758Y0018819D03*
G01X0025561Y0018819D03*
G01X0025364Y0018819D03*
G01X0025167Y0018819D03*
G01X0024971Y0018819D03*
G01X0024774Y0018819D03*
G01X0024577Y0018819D03*
G01X0024380Y0018819D03*
G01X0024183Y0018819D03*
G01X0023986Y0018819D03*
G01X0023986Y0021988D03*
G01X0024183Y0021988D03*
G01X0024380Y0021988D03*
G01X0024577Y0021988D03*
G01X0024774Y0021988D03*
G01X0024971Y0021988D03*
G01X0025167Y0021988D03*
G01X0025364Y0021988D03*
G01X0025561Y0021988D03*
G01X0025758Y0021988D03*
G01X0025955Y0021988D03*
G01X0026152Y0021988D03*
G54D18*
G01X0023846Y0023693D02*
G01X0023846Y0024931D01*
G01X0024085Y0019321D02*
G01X0024557Y0019793D01*
G01X0027392Y0020896D02*
G01X0027736Y0020551D01*
G01X0027736Y0020108D02*
G01X0027736Y0020551D01*
G01X0027736Y0020108D02*
G01X0028079Y0019766D01*
G01X0026654Y0020896D02*
G01X0027392Y0020896D01*
G01X0028079Y0019766D02*
G01X0028661Y0019766D01*
G01X0025758Y0017756D02*
G01X0025758Y0018819D01*
G01X0024034Y0016032D02*
G01X0025758Y0017756D01*
G01X0024034Y0015394D02*
G01X0024034Y0016032D01*
G01X0026034Y0016476D02*
G01X0026654Y0017097D01*
G01X0026034Y0015394D02*
G01X0026034Y0016476D01*
G01X0022402Y0019734D02*
G01X0022402Y0019793D01*
G01X0028661Y0020766D02*
G01X0029352Y0020766D01*
G01X0028661Y0020266D02*
G01X0029183Y0020266D01*
G01X0026654Y0021093D02*
G01X0027421Y0021093D01*
G01X0027421Y0021093D02*
G01X0027595Y0021266D01*
G01X0027595Y0021266D02*
G01X0028661Y0021266D01*
G01X0022447Y0018813D02*
G01X0023981Y0018813D01*
G01X0021870Y0019390D02*
G01X0022447Y0018813D01*
G01X0023981Y0018813D02*
G01X0023986Y0018819D01*
G01X0023161Y0019715D02*
G01X0023484Y0019715D01*
G01X0022639Y0020236D02*
G01X0023161Y0019715D01*
G01X0021142Y0020236D02*
G01X0022639Y0020236D01*
G01X0025709Y0024931D02*
G01X0025719Y0024941D01*
G01X0025719Y0024941D02*
G01X0026614Y0024941D01*
G01X0020079Y0024951D02*
G01X0020098Y0024931D01*
G01X0018691Y0024951D02*
G01X0020079Y0024951D01*
G01X0023474Y0021476D02*
G01X0023484Y0021486D01*
G01X0022638Y0021476D02*
G01X0023474Y0021476D01*
G01X0023711Y0021988D02*
G01X0023986Y0021988D01*
G01X0023347Y0022352D02*
G01X0023711Y0021988D01*
G01X0022628Y0022352D02*
G01X0023347Y0022352D01*
G01X0020098Y0025620D02*
G01X0021035Y0025620D01*
G01X0021972Y0025620D02*
G01X0022910Y0025620D01*
G01X0023846Y0025620D02*
G01X0024784Y0025620D01*
G01X0024183Y0021777D02*
G01X0024188Y0021772D01*
G01X0021035Y0024931D02*
G01X0021803Y0024163D01*
G01X0021972Y0024931D02*
G01X0022465Y0024439D01*
G01X0022910Y0024931D02*
G01X0023846Y0024931D01*
G01X0024774Y0021988D02*
G01X0024774Y0023573D01*
G01X0020616Y0020762D02*
G01X0021122Y0020256D01*
G01X0019404Y0020762D02*
G01X0020616Y0020762D01*
G01X0019402Y0020765D02*
G01X0019404Y0020762D01*
G01X0019402Y0019820D02*
G01X0019402Y0020135D01*
G01X0021870Y0019784D02*
G01X0021870Y0019823D01*
G01X0021870Y0019390D02*
G01X0021870Y0019784D01*
G01X0021870Y0019370D02*
G01X0021870Y0019390D01*
G01X0020866Y0019370D02*
G01X0021870Y0019370D01*
G01X0020591Y0019646D02*
G01X0020866Y0019370D01*
G01X0020591Y0019646D02*
G01X0020591Y0020118D01*
G01X0020259Y0020450D02*
G01X0020591Y0020118D01*
G01X0019402Y0020450D02*
G01X0020259Y0020450D01*
G01X0021122Y0020256D02*
G01X0021142Y0020236D01*
G01X0021122Y0019823D02*
G01X0021122Y0020256D01*
G01X0026152Y0021496D02*
G01X0026152Y0021988D01*
G01X0026142Y0021486D02*
G01X0026152Y0021496D01*
G01X0026142Y0021486D02*
G01X0026654Y0021486D01*
G01X0025994Y0021339D02*
G01X0026142Y0021486D01*
G01X0024577Y0021339D02*
G01X0024577Y0021988D01*
G01X0024577Y0021988D02*
G01X0024577Y0021988D01*
G01X0024577Y0021339D02*
G01X0024577Y0021339D01*
G01X0024577Y0021339D02*
G01X0025994Y0021339D01*
G01X0023484Y0019321D02*
G01X0024085Y0019321D01*
G01X0024557Y0019784D02*
G01X0024557Y0019793D01*
G01X0027717Y0024390D02*
G01X0028386Y0025059D01*
G01X0024971Y0022456D02*
G01X0024971Y0022456D01*
G01X0024971Y0021988D02*
G01X0024971Y0022456D01*
G01X0026654Y0020699D02*
G01X0027175Y0020699D01*
G01X0027175Y0020699D02*
G01X0027451Y0020423D01*
G01X0027451Y0018602D02*
G01X0027451Y0020423D01*
G01X0027077Y0018228D02*
G01X0027451Y0018602D01*
G01X0026654Y0017097D02*
G01X0026654Y0019321D01*
G01X0018691Y0024951D02*
G01X0018691Y0024951D01*
G01X0028386Y0023091D02*
G01X0028386Y0024154D01*
G01X0028376Y0024163D02*
G01X0028386Y0024154D01*
G01X0022402Y0019734D02*
G01X0022618Y0019518D01*
G01X0022618Y0019518D02*
G01X0023484Y0019518D01*
G01X0026339Y0023278D02*
G01X0026772Y0023278D01*
G01X0025955Y0022894D02*
G01X0026339Y0023278D01*
G01X0025955Y0021988D02*
G01X0025955Y0022894D01*
G01X0026152Y0021988D02*
G01X0026152Y0022421D01*
G01X0026152Y0022421D02*
G01X0026319Y0022589D01*
G01X0026319Y0022589D02*
G01X0026772Y0022589D01*
G01X0030758Y0021295D02*
G01X0030787Y0021266D01*
G01X0030758Y0021295D02*
G01X0030758Y0021683D01*
G01X0030345Y0022097D02*
G01X0030758Y0021683D01*
G01X0028071Y0022097D02*
G01X0030345Y0022097D01*
G01X0027667Y0022500D02*
G01X0028071Y0022097D01*
G01X0027667Y0022500D02*
G01X0027667Y0022982D01*
G01X0027372Y0023278D02*
G01X0027667Y0022982D01*
G01X0026772Y0023278D02*
G01X0027372Y0023278D01*
G01X0024784Y0024134D02*
G01X0024784Y0024931D01*
G01X0024774Y0024124D02*
G01X0024784Y0024134D01*
G01X0024774Y0023573D02*
G01X0024774Y0024124D01*
G01X0024774Y0023573D02*
G01X0024774Y0023573D01*
G01X0031221Y0016181D02*
G01X0031841Y0016801D01*
G01X0030787Y0020266D02*
G01X0031841Y0020266D01*
G01X0031841Y0016801D02*
G01X0031841Y0020266D01*
G01X0029813Y0015492D02*
G01X0031221Y0015492D01*
G01X0028156Y0017150D02*
G01X0029813Y0015492D01*
G01X0028156Y0017150D02*
G01X0028156Y0017884D01*
G01X0031317Y0020766D02*
G01X0031831Y0021279D01*
G01X0030787Y0020766D02*
G01X0031317Y0020766D01*
G01X0031841Y0020266D02*
G01X0031841Y0020665D01*
G01X0028376Y0024163D02*
G01X0030079Y0024163D01*
G01X0030177Y0025000D02*
G01X0030177Y0025059D01*
G01X0030177Y0025059D02*
G01X0030177Y0025089D01*
G01X0030866Y0024173D02*
G01X0030866Y0025089D01*
G01X0030856Y0024163D02*
G01X0030866Y0024173D01*
G01X0030866Y0025089D02*
G01X0030866Y0025955D01*
G01X0026654Y0021289D02*
G01X0027244Y0021289D01*
G01X0027244Y0021289D02*
G01X0027658Y0021703D01*
G01X0027658Y0021703D02*
G01X0029321Y0021703D01*
G01X0029321Y0021703D02*
G01X0029675Y0021348D01*
G01X0029675Y0020758D02*
G01X0029675Y0021348D01*
G01X0019402Y0018737D02*
G01X0019402Y0019820D01*
G01X0019362Y0018698D02*
G01X0019402Y0018737D01*
G01X0025709Y0025620D02*
G01X0025709Y0026270D01*
G01X0025709Y0026270D02*
G01X0025719Y0026279D01*
G01X0021803Y0024163D02*
G01X0022569Y0024163D01*
G01X0022569Y0024163D02*
G01X0024183Y0022549D01*
G01X0024183Y0021988D02*
G01X0024183Y0022549D01*
G01X0022465Y0024439D02*
G01X0022638Y0024439D01*
G01X0022638Y0024439D02*
G01X0024380Y0022697D01*
G01X0024380Y0021988D02*
G01X0024380Y0022697D01*
G01X0024577Y0021988D02*
G01X0024577Y0022963D01*
G01X0025364Y0021988D02*
G01X0025364Y0022687D01*
G01X0025364Y0022687D02*
G01X0026841Y0024163D01*
G01X0026841Y0024163D02*
G01X0028376Y0024163D01*
G01X0025167Y0021988D02*
G01X0025167Y0022815D01*
G01X0025167Y0022815D02*
G01X0026742Y0024390D01*
G01X0026742Y0024390D02*
G01X0027717Y0024390D01*
G01X0024971Y0022456D02*
G01X0024971Y0022933D01*
G01X0024971Y0022933D02*
G01X0025709Y0023671D01*
G01X0025709Y0023671D02*
G01X0025709Y0024931D01*
G01X0023846Y0023693D02*
G01X0024577Y0022963D01*
G01X0024577Y0019803D02*
G01X0024577Y0021339D01*
G01X0024557Y0019784D02*
G01X0024577Y0019803D01*
G01X0019362Y0022202D02*
G01X0019362Y0022823D01*
G01X0019055Y0023130D02*
G01X0019362Y0022823D01*
G01X0018750Y0023130D02*
G01X0019055Y0023130D01*
G01X0028386Y0025059D02*
G01X0030177Y0025059D01*
G01X0024183Y0021777D02*
G01X0024183Y0022529D01*
G01X0024380Y0021859D02*
G01X0024380Y0022697D01*
G01X0030079Y0024163D02*
G01X0030177Y0024065D01*
G01X0020974Y0022195D02*
G01X0021496Y0021673D01*
G01X0021496Y0020689D02*
G01X0021496Y0021673D01*
G01X0019402Y0021080D02*
G01X0020726Y0021080D01*
G01X0020726Y0021080D02*
G01X0020974Y0021329D01*
G01X0026614Y0025630D02*
G01X0026939Y0025955D01*
G01X0026939Y0025955D02*
G01X0030866Y0025955D01*
G01X0031841Y0020665D02*
G01X0033014Y0021839D01*
G01X0029183Y0020266D02*
G01X0029683Y0019766D01*
G01X0029683Y0019766D02*
G01X0030787Y0019766D01*
G01X0029675Y0019154D02*
G01X0029675Y0019758D01*
G01X0029675Y0019758D02*
G01X0029683Y0019766D01*
G54D19*
G01X0028156Y0017884D03*
G01X0031156Y0017884D03*
G01X0028386Y0025059D03*
G01X0028386Y0023091D03*
G54D20*
G01X0018691Y0024951D03*
G01X0022638Y0021476D03*
G01X0022628Y0022352D03*
G54D21*
G01X0033014Y0018567D03*
G01X0034132Y0019112D03*
G01X0033014Y0019658D03*
G01X0034132Y0020203D03*
G01X0033014Y0020748D03*
G01X0034132Y0021293D03*
G01X0033014Y0021839D03*
G01X0034132Y0022384D03*
G54D22*
G01X0033014Y0022929D03*
G54D23*
G01X0033573Y0025667D03*
G01X0033573Y0015829D03*
G54D24*
G01X0025034Y0015394D03*
G01X0026034Y0015394D03*
G01X0024034Y0015394D03*
G54D25*
G01X0027034Y0015394D03*
G54D26*
G01X0018378Y0019584D03*
G01X0018378Y0021316D03*
G54D27*
G01X0022402Y0019793D03*
G01X0029675Y0019154D03*
G01X0024557Y0019784D03*
G01X0027077Y0018228D03*
G01X0020974Y0021329D03*
G01X0024774Y0024124D03*
G01X0020974Y0022195D03*
G01X0029675Y0020758D03*
G01X0031831Y0021279D03*
G01X0030866Y0025955D03*
G01X0025719Y0026279D03*
G01X0023848Y0024124D03*
G01X0018691Y0023130D03*
M02*
