G04 This is an RS-274x file exported by *
G04 gerbv version 2.6A *
G04 More information is available about gerbv at *
G04 http://gerbv.geda-project.org/ *
G04 --End of header info--*
%MOIN*%
%FSLAX34Y34*%
%IPPOS*%
G04 --Define apertures--*
%ADD10R,0.0867X0.0316*%
%ADD11R,0.0612X0.0533*%
%ADD12R,0.0533X0.0612*%
%ADD13R,0.0316X0.0434*%
%ADD14R,0.1064X0.0867*%
%ADD15R,0.0985X0.0277*%
%ADD16O,0.0690X0.0178*%
%ADD17O,0.0178X0.0690*%
%ADD18C,0.0710*%
%ADD19C,0.0474*%
%ADD20C,0.0745*%
%ADD21R,0.0745X0.0745*%
%ADD22C,0.1954*%
%ADD23C,0.0680*%
%ADD24R,0.0680X0.0680*%
%ADD25C,0.0316*%
%ADD26C,0.0592*%
G04 --Start main section--*
G54D10*
G01X0030787Y0020266D03*
G01X0030787Y0021266D03*
G01X0030787Y0019766D03*
G01X0030787Y0020766D03*
G01X0028661Y0020266D03*
G01X0028661Y0020766D03*
G01X0028661Y0019766D03*
G01X0028661Y0021266D03*
G54D11*
G01X0031221Y0016181D03*
G01X0031221Y0015492D03*
G01X0026614Y0024941D03*
G01X0026614Y0025630D03*
G01X0025709Y0024931D03*
G01X0025709Y0025620D03*
G01X0022910Y0024931D03*
G01X0022910Y0025620D03*
G01X0021972Y0024931D03*
G01X0021972Y0025620D03*
G01X0024784Y0024931D03*
G01X0024784Y0025620D03*
G01X0023846Y0024931D03*
G01X0023846Y0025620D03*
G01X0020098Y0024931D03*
G01X0020098Y0025620D03*
G01X0021035Y0024931D03*
G01X0021035Y0025620D03*
G01X0026772Y0023278D03*
G01X0026772Y0022589D03*
G54D12*
G01X0030167Y0024163D03*
G01X0030856Y0024163D03*
G01X0030177Y0025089D03*
G01X0030866Y0025089D03*
G54D13*
G01X0021496Y0020689D03*
G01X0021870Y0019784D03*
G01X0021122Y0019784D03*
G54D14*
G01X0017197Y0018698D03*
G01X0017197Y0022202D03*
G01X0019362Y0022202D03*
G01X0019362Y0018698D03*
G54D15*
G01X0019402Y0021080D03*
G01X0019402Y0020765D03*
G01X0019402Y0020450D03*
G01X0019402Y0020135D03*
G01X0019402Y0019820D03*
G54D16*
G01X0026654Y0021486D03*
G01X0026654Y0021289D03*
G01X0026654Y0021093D03*
G01X0026654Y0020896D03*
G01X0026654Y0020699D03*
G01X0026654Y0020502D03*
G01X0026654Y0020305D03*
G01X0026654Y0020108D03*
G01X0026654Y0019911D03*
G01X0026654Y0019715D03*
G01X0026654Y0019518D03*
G01X0026654Y0019321D03*
G01X0023484Y0019321D03*
G01X0023484Y0019518D03*
G01X0023484Y0019715D03*
G01X0023484Y0019911D03*
G01X0023484Y0020108D03*
G01X0023484Y0020305D03*
G01X0023484Y0020502D03*
G01X0023484Y0020699D03*
G01X0023484Y0020896D03*
G01X0023484Y0021093D03*
G01X0023484Y0021289D03*
G01X0023484Y0021486D03*
G54D17*
G01X0026152Y0018819D03*
G01X0025955Y0018819D03*
G01X0025758Y0018819D03*
G01X0025561Y0018819D03*
G01X0025364Y0018819D03*
G01X0025167Y0018819D03*
G01X0024971Y0018819D03*
G01X0024774Y0018819D03*
G01X0024577Y0018819D03*
G01X0024380Y0018819D03*
G01X0024183Y0018819D03*
G01X0023986Y0018819D03*
G01X0023986Y0021988D03*
G01X0024183Y0021988D03*
G01X0024380Y0021988D03*
G01X0024577Y0021988D03*
G01X0024774Y0021988D03*
G01X0024971Y0021988D03*
G01X0025167Y0021988D03*
G01X0025364Y0021988D03*
G01X0025561Y0021988D03*
G01X0025758Y0021988D03*
G01X0025955Y0021988D03*
G01X0026152Y0021988D03*
G54D18*
G01X0028156Y0017884D03*
G01X0031156Y0017884D03*
G01X0028386Y0025059D03*
G01X0028386Y0023091D03*
G54D19*
G01X0018691Y0024951D03*
G01X0022638Y0021476D03*
G01X0022628Y0022352D03*
G54D20*
G01X0033014Y0018567D03*
G01X0034132Y0019112D03*
G01X0033014Y0019658D03*
G01X0034132Y0020203D03*
G01X0033014Y0020748D03*
G01X0034132Y0021293D03*
G01X0033014Y0021839D03*
G01X0034132Y0022384D03*
G54D21*
G01X0033014Y0022929D03*
G54D22*
G01X0033573Y0025667D03*
G01X0033573Y0015829D03*
G54D23*
G01X0025034Y0015394D03*
G01X0026034Y0015394D03*
G01X0024034Y0015394D03*
G54D24*
G01X0027034Y0015394D03*
G54D25*
G01X0018378Y0019584D03*
G01X0018378Y0021316D03*
G54D26*
G01X0022402Y0019793D03*
G01X0029675Y0019154D03*
G01X0024557Y0019784D03*
G01X0027077Y0018228D03*
G01X0020974Y0021329D03*
G01X0024774Y0024124D03*
G01X0020974Y0022195D03*
G01X0029675Y0020758D03*
G01X0031831Y0021279D03*
G01X0030866Y0025955D03*
G01X0025719Y0026279D03*
G01X0023848Y0024124D03*
G01X0018691Y0023130D03*
M02*
