M48
;Layer_Color=9474304
;FILE_FORMAT=4:4
METRIC,LZ
;TYPE=PLATED
T2F00S00C0.5000
T3F00S00C0.6000
T4F00S00C0.7112
T5F00S00C0.8000
T6F00S00C1.0000
T7F00S00C3.0000
%
T02
X0047475Y0063375
X0057475Y0056775
X00575Y005455
T03
X008085Y005405
X0075375Y0052725
Y004865
X0068775Y00463
X0062375Y005025
X00569Y0050275
X0053275Y0054175
Y0056375
X0060575Y0061275
X0062925
X0065325Y006675
X00784Y0065925
T04
X0047475Y005875
T05
X0061045Y00391
X0063585
X0066125
X0068665
X0071515Y0045425
X0079135
X00721Y005865
Y006365
T06
X0083855Y004716
Y004993
Y00527
Y005547
Y005824
X0086695Y0056855
X0086695Y0054085
X0086695Y0051315
Y0048545
T07
X0085275Y0040205
Y0065195
M30
