M48
;Layer_Color=9474304
;FILE_FORMAT=4:2
METRIC,LZ
;TYPE=PLATED
T1F00S00C0.60
T2F00S00C0.80
T3F00S00C1.00
T4F00S00C3.00
%
T01
X008085Y005405
X007538Y005272
Y004865
X006878Y00463
X006238Y005025
X00569Y005028
X00575Y005455
X005747Y005678
X005328Y005638
Y005417
X004747Y005875
Y006338
X006058Y006128
X006292
X006532Y006675
X00784Y006593
T02
X006104Y00391
X006358
X006612
X006867
X007151Y004542
X007914
X00721Y005865
Y006365
T03
X008386Y004716
Y004993
Y00527
Y005547
Y005824
X008669Y005685
X008669Y005408
X008669Y005131
Y004854
X004668Y004974
Y005414
T04
X008528Y004021
Y006519
M30
